<svg width="12" height="12" viewBox="0 0 12 12" fill="none" xmlns="http://www.w3.org/2000/svg">
<path d="M11.3459 6.81188L11.2897 6.73267L5.9295 1.06931C4.58008 -0.356436 2.38727 -0.356436 1.01911 1.06931C-0.349057 2.49505 -0.330315 4.83168 1.01911 6.25743L6.45427 12L6.97905 11.4455L1.54388 5.70297C1.03785 5.14851 0.756718 4.43564 0.756718 3.66337C0.756718 2.89109 1.03785 2.17822 1.54388 1.62376C2.61217 0.49505 4.33643 0.49505 5.38598 1.62376L9.82782 6.31683L10.7649 7.30693C11.4209 8 11.4209 9.12871 10.7649 9.82178C10.4463 10.1584 10.0152 10.3366 9.56544 10.3366C9.11563 10.3366 8.68456 10.1584 8.36595 9.82178L3.00575 4.13861C2.87456 4 2.81833 3.84158 2.81833 3.66337C2.81833 3.48515 2.8933 3.30693 3.02449 3.16832C3.26814 2.91089 3.68046 2.91089 3.94285 3.16832L9.32179 8.85149L9.84657 8.29703L4.44888 2.59406C3.90537 2.0198 3.02449 2.0198 2.46224 2.61386C2.19985 2.89109 2.04991 3.26733 2.04991 3.66337C2.04991 4.05941 2.19985 4.43564 2.46224 4.71287L7.84118 10.396C8.79702 11.4059 10.3339 11.4059 11.2897 10.396C12.2081 9.40594 12.2455 7.82178 11.3459 6.81188Z" fill="#1C2545"/>
</svg>
