<svg width="384" height="384" viewBox="0 0 384 384" fill="none" xmlns="http://www.w3.org/2000/svg">
<path d="M64 0V80H0V224H64V384H288L384 288V0H64ZM16 208V96H256V208H16ZM288 361.376V288H361.376L288 361.376ZM368 272H272V368H80V224H272V80H80V16H368V272Z" fill="#323248"/>
<path d="M78.673 160.225C78.673 163.937 78.449 166.929 78.001 169.201C77.569 171.473 76.961 173.233 76.177 174.481C75.409 175.729 74.497 176.561 73.441 176.977C72.385 177.393 71.249 177.601 70.033 177.601C68.561 177.601 67.265 177.281 66.145 176.673C65.025 176.081 64.097 174.897 63.361 173.121C62.625 171.345 62.065 168.881 61.729 165.681C61.377 162.481 61.201 158.289 61.201 153.105C61.201 148.241 61.313 144.129 61.585 140.769C61.841 137.393 62.289 134.673 62.929 132.593C63.569 130.513 64.449 129.025 65.569 128.097C66.689 127.153 68.1129 126.689 69.841 126.689C72.9769 126.689 75.137 127.825 76.321 130.113C77.489 132.369 78.081 136.001 78.081 141.041H91.889C91.889 138.545 91.713 135.873 91.361 133.025C91.025 130.177 90.113 127.521 88.721 125.057C87.329 122.593 85.201 120.561 82.353 118.961C79.505 117.361 75.633 116.561 70.689 116.561C65.521 116.561 61.377 117.457 58.321 119.201C55.249 120.961 52.913 123.425 51.265 126.545C49.649 129.681 48.577 133.457 48.097 137.825C47.633 142.209 47.377 146.993 47.377 152.177C47.377 157.409 47.633 162.225 48.097 166.561C48.577 170.913 49.633 174.657 51.265 177.793C52.897 180.929 55.249 183.329 58.321 184.993C61.377 186.641 65.521 187.489 70.689 187.489C75.233 187.489 78.929 186.769 81.777 185.361C84.625 183.953 86.817 182.001 88.401 179.521C89.953 177.025 91.041 174.113 91.617 170.785C92.193 167.457 92.481 163.921 92.481 160.225H78.673V160.225Z" fill="#323248"/>
<path d="M152.272 160.976C151.888 159.232 151.2 157.664 150.208 156.224C149.232 154.784 147.888 153.44 146.224 152.192C144.576 150.928 142.432 149.728 139.808 148.576L129.152 143.968C126.208 142.768 124.288 141.44 123.392 139.984C122.496 138.544 122.048 136.784 122.048 134.656C122.048 133.632 122.144 132.64 122.384 131.68C122.608 130.72 123.024 129.84 123.632 129.104C124.24 128.368 125.072 127.776 126.08 127.328C127.104 126.896 128.384 126.656 129.92 126.656C132.608 126.656 134.528 127.552 135.68 129.296C136.816 131.072 137.392 133.584 137.392 136.848H150.64V134.928C150.64 131.664 150.096 128.864 149.056 126.528C148 124.208 146.528 122.288 144.64 120.784C142.752 119.264 140.512 118.192 137.92 117.52C135.328 116.848 132.496 116.512 129.424 116.512C122.832 116.512 117.632 118.176 113.872 121.504C110.096 124.832 108.208 129.872 108.208 136.656C108.208 139.488 108.56 141.952 109.264 144.112C109.968 146.256 111.072 148.144 112.576 149.776C114.08 151.424 115.952 152.848 118.192 154.048C120.448 155.264 123.104 156.4 126.16 157.424C128.464 158.192 130.416 158.944 131.968 159.68C133.52 160.416 134.784 161.216 135.76 162.128C136.72 163.008 137.408 164.016 137.824 165.136C138.224 166.256 138.448 167.584 138.448 169.12C138.448 171.984 137.584 174.128 135.904 175.504C134.208 176.88 132.32 177.568 130.192 177.568C128.416 177.568 126.912 177.296 125.744 176.8C124.56 176.288 123.6 175.584 122.896 174.672C122.192 173.776 121.728 172.672 121.456 171.36C121.216 170.064 121.072 168.608 121.072 167.008V165.008H107.248V167.792C107.248 174.128 108.912 178.992 112.272 182.384C115.648 185.776 121.232 187.472 129.04 187.472C136.528 187.472 142.368 185.808 146.56 182.512C150.752 179.216 152.848 173.952 152.848 166.72C152.848 164.624 152.656 162.688 152.272 160.976Z" fill="#323248"/>
<path d="M199.824 117.855L189.648 168.543H189.344L179.696 117.855H164.912L180.64 186.399H198.4L214.144 117.855H199.824Z" fill="#323248"/>
</svg>
