<svg width="24" height="24" viewBox="0 0 24 24" fill="none" xmlns="http://www.w3.org/2000/svg">
<path d="M17.5 6H14.5V5C14.5 4.45 14.05 4 13.5 4H10.5C9.95 4 9.5 4.45 9.5 5V6H6.5C5.95 6 5.5 6.45 5.5 7V9H6.525L7.175 18.6C7.225 19.375 7.875 20 8.675 20H15.3C16.075 20 16.75 19.375 16.8 18.6L17.475 9H18.5V7C18.5 6.45 18.05 6 17.5 6ZM10.5 5H13.5V6H10.5V5ZM15.825 18.525C15.8 18.775 15.6 19 15.325 19H8.675C8.425 19 8.2 18.8 8.175 18.525L7.525 9H16.45L15.825 18.525ZM17.5 8H6.5V7H17.5V8Z" fill="#A51A0D"/>
<path d="M10.2504 16.9778L9.75 10.4717L8.7529 10.5484L9.25334 17.0545L10.2504 16.9778Z" fill="#A51A0D"/>
<path d="M12.5 10.5H11.5V17H12.5V10.5Z" fill="#A51A0D"/>
<path d="M15.2491 10.5483L14.252 10.4717L13.7518 16.9778L14.7489 17.0544L15.2491 10.5483Z" fill="#A51A0D"/>
</svg>
