<svg width="24" height="24" viewBox="0 0 24 24" fill="none" xmlns="http://www.w3.org/2000/svg">
<path d="M19.75 11.525C17.225 8.55 14.55 7 12 7C9.45 7 6.775 8.55 4.25 11.525C4 11.8 4 12.225 4.25 12.5C6.775 15.45 9.45 17 12 17C14.55 17 17.225 15.45 19.75 12.475C19.975 12.2 19.975 11.8 19.75 11.525ZM12 16C9.825 16 7.4 14.575 5.15 12C7.4 9.425 9.825 8 12 8C14.175 8 16.6 9.425 18.85 12C16.6 14.575 14.175 16 12 16Z" fill="#333333"/>
<path d="M12 9C10.35 9 9 10.35 9 12C9 13.65 10.35 15 12 15C13.65 15 15 13.65 15 12C15 10.35 13.65 9 12 9ZM12 14C10.9 14 10 13.1 10 12C10 10.9 10.9 10 12 10C13.1 10 14 10.9 14 12C14 13.1 13.1 14 12 14Z" fill="#333333"/>
</svg>
