<svg width="512" height="512" viewBox="0 0 512 512" fill="none" xmlns="http://www.w3.org/2000/svg">
<path d="M437.333 128H330.667C324.779 128 320 123.2 320 117.333V10.667C320 4.779 315.221 0 309.333 0H96C78.357 0 64 14.357 64 32V480C64 497.643 78.357 512 96 512H416C433.643 512 448 497.643 448 480V138.667C448 132.779 443.221 128 437.333 128ZM426.667 480C426.667 485.867 421.888 490.667 416 490.667H96C90.112 490.667 85.333 485.867 85.333 480V32C85.333 26.133 90.112 21.333 96 21.333H298.667V117.333C298.667 134.976 313.024 149.333 330.667 149.333H426.667V480V480Z" fill="#323248"/>
<path d="M444.863 131.136L316.863 3.13562C312.703 -1.02437 305.94 -1.02437 301.78 3.13562C297.62 7.29562 297.62 14.0586 301.78 18.2186L429.78 146.219C431.871 148.288 434.601 149.334 437.332 149.334C440.063 149.334 442.793 148.289 444.863 146.219C449.023 142.059 449.023 135.296 444.863 131.136Z" fill="#323248"/>
</svg>
