<svg width="16" height="16" viewBox="0 0 16 16" fill="none" xmlns="http://www.w3.org/2000/svg">
<g clip-path="url(#clip0)">
<path d="M9.00156 10.75C8.57656 10.75 8.20156 10.6 7.90156 10.3L5.85156 8.25L6.55156 7.55L8.60156 9.6C8.80156 9.8 9.17656 9.8 9.37656 9.6L14.8266 4.175C15.0266 3.95 15.0266 3.625 14.8266 3.4L12.6016 1.175C12.5266 1.05 12.4016 1 12.2516 1C12.1016 1 11.9766 1.05 11.8766 1.15L8.15156 4.9L7.45156 4.2L11.1516 0.45C11.4516 0.15 11.8266 0 12.2516 0C12.6766 0 13.0516 0.15 13.3516 0.45L15.5766 2.675C16.1766 3.275 16.1766 4.25 15.5766 4.85L10.1016 10.3C9.82656 10.6 9.42656 10.75 9.00156 10.75Z" fill="#8787AB"/>
<path d="M3.75156 16.0004C3.32656 16.0004 2.95156 15.8504 2.65156 15.5504L0.426563 13.3254C-0.173438 12.7254 -0.173438 11.7504 0.426563 11.1504L5.60156 5.97539C5.90156 5.67539 6.27656 5.52539 6.70156 5.52539C7.12656 5.52539 7.50156 5.67539 7.80156 5.97539L9.85156 8.02539L9.15156 8.72539L7.10156 6.67539C6.90156 6.47539 6.52656 6.47539 6.32656 6.67539L1.15156 11.8504C0.926562 12.0754 0.926562 12.4004 1.15156 12.6254L3.37656 14.8504C3.47656 14.9504 3.62656 15.0004 3.75156 15.0004C3.90156 15.0004 4.02656 14.9504 4.12656 14.8504L7.85156 11.1254L8.55156 11.8254L4.85156 15.5504C4.55156 15.8504 4.17656 16.0004 3.75156 16.0004Z" fill="#8787AB"/>
</g>
<defs>
<clipPath id="clip0">
<rect width="16" height="16" fill="white"/>
</clipPath>
</defs>
</svg>
