<svg width="80" height="80" viewBox="0 0 80 80" fill="none" xmlns="http://www.w3.org/2000/svg">
<rect width="80" height="80" fill="#DBDBE6"/>
<path d="M44.3 39.5C46.55 37.95 48 35.4 48 32.5C48 27.8 44.2 24 39.5 24C34.8 24 31 27.8 31 32.5C31 35.4 32.45 37.95 34.7 39.5C30.25 40.9 27 45.1 27 50V56H52V50C52 45.1 48.75 40.9 44.3 39.5ZM33 32.5C33 28.9 35.9 26 39.5 26C43.1 26 46 28.9 46 32.5C46 36.1 43.1 39 39.5 39C35.9 39 33 36.1 33 32.5ZM50 54H29V50C29 45.05 33.05 41 38 41H41C45.95 41 50 45.05 50 50V54Z" fill="#5864C5"/>
</svg>
