<svg width="53" height="51" viewBox="0 0 53 51" fill="none" xmlns="http://www.w3.org/2000/svg">
<path d="M19.3869 10.5C12.1173 13.4948 7 20.6498 7 29C7 30.0196 7.0763 31.0214 7.2235 32M34.6131 10.5C41.8827 13.4948 47 20.6498 47 29C47 30.0196 46.9237 31.0214 46.7765 32M14 44.1992C17.4961 47.1922 22.0369 49 27 49C31.9631 49 36.5039 47.1922 40 44.1992" stroke="#5864C5" stroke-width="2"/>
<path d="M25.9185 18.8182H27.0833V17.2344C30.0662 17.0284 31.7424 15.267 31.7424 13.0511C31.7424 10.3239 29.1571 9.44318 27.6515 9.04545L27.0833 8.8892V3.83949C28.589 3.98864 29.6827 4.7983 29.839 6.09091H31.5435C31.4725 4.01705 29.6543 2.44034 27.0833 2.26989V0.636363H25.9185V2.29119C23.4824 2.53977 21.6571 4.08807 21.6571 6.31818C21.6571 8.27841 23.0776 9.44318 25.3503 10.0966L25.9185 10.2599V15.6364C24.427 15.4801 23.2054 14.7131 23.0776 13.25H21.2594C21.4228 15.4872 23.1273 17.0497 25.9185 17.2344V18.8182ZM27.0833 15.6364V10.5938L27.1401 10.608C28.6742 11.0341 30.0378 11.5739 30.0378 13.0227C30.0378 14.4503 28.802 15.4446 27.0833 15.6364ZM25.9185 8.5767C24.839 8.27131 23.3617 7.67472 23.3617 6.23295C23.3617 5.00426 24.356 4.06676 25.9185 3.8608V8.5767Z" fill="#5864C5"/>
<path d="M10.7757 40.5966H4.55415C5.12234 38.1889 6.67773 36.9034 8.58825 36.9034C9.80984 36.9034 10.861 37.4148 11.7701 38.2386L12.4519 36.7614C11.4292 35.7955 10.0939 35.2557 8.58825 35.2557C5.66921 35.2557 3.46751 37.2585 2.8141 40.5966H1.37234L0.860973 42.017H2.64364C2.62944 42.2514 2.62234 42.4858 2.62234 42.7273C2.62234 42.9688 2.62944 43.2031 2.64364 43.4375H1.37234L0.860973 44.858H2.8141C3.46751 48.196 5.66921 50.1989 8.58825 50.1989C10.0371 50.1989 11.4292 49.7159 12.4235 48.7784L11.7132 47.3011C10.8894 48.0114 9.83825 48.5511 8.58825 48.5511C6.67773 48.5511 5.12234 47.2656 4.55415 44.858H8.90075L9.55415 43.4375H4.34819C4.33398 43.2102 4.32688 42.9688 4.32688 42.7273C4.32688 42.4858 4.33398 42.2443 4.34819 42.017H10.1223L10.7757 40.5966Z" fill="#5864C5"/>
<path d="M51.1289 50V48.4375H44.2326C44.6729 47.848 44.8079 46.9673 44.7653 46.0227L44.7013 44.3466H48.0607V42.7273H44.6445L44.538 39.858C44.538 37.7557 45.93 36.8182 47.2937 36.8182C48.5721 36.8182 49.8221 37.642 49.6232 39.1193L51.271 39.5739C51.8107 37.4148 49.9073 35.2557 47.2085 35.2557C44.9925 35.2557 42.7766 36.7614 42.8903 39.858L42.9826 42.7273H41.4414V44.3466H43.0323L43.0891 46.0227C43.1175 46.875 42.9187 48.4375 42.0664 48.4375H41.4982V50H51.1289Z" fill="#5864C5"/>
</svg>
