<svg width="56" height="56" viewBox="0 0 56 56" fill="none" xmlns="http://www.w3.org/2000/svg">
<path d="M55 28.0066C55 42.9142 42.9119 54.9996 28 54.9996C13.0881 54.9996 1 42.9142 1 28.0066C1 13.0991 13.0881 1.01367 28 1.01367C42.9119 1.01367 55 13.0991 55 28.0066Z" stroke="#5864C5" stroke-width="2"/>
<path d="M42 28.0066C42 35.6051 40.3475 42.4345 37.7252 47.3283C35.0804 52.264 31.5955 54.9996 28 54.9996C24.4045 54.9996 20.9196 52.264 18.2748 47.3283C15.6525 42.4345 14 35.6051 14 28.0066C14 20.4082 15.6525 13.5787 18.2748 8.68493C20.9196 3.74928 24.4045 1.01367 28 1.01367C31.5955 1.01367 35.0804 3.74928 37.7252 8.68493C40.3475 13.5787 42 20.4082 42 28.0066Z" stroke="#5864C5" stroke-width="2"/>
<path d="M28.0316 1.01404C35.2405 0.785979 40.6428 3.54193 44.2591 6.36906C46.069 7.78396 47.4262 9.21328 48.3286 10.2857C48.6192 10.6312 48.8622 10.939 49.0573 11.1965C48.7623 11.3661 48.401 11.5697 47.981 11.7988C46.7114 12.4916 44.9098 13.4159 42.7861 14.3398C38.5145 16.1981 33.0405 18.0098 28 18.0098C22.9595 18.0098 17.4855 16.1981 13.2139 14.3398C11.0902 13.4159 9.28858 12.4916 8.01898 11.7988C7.59251 11.5661 7.22652 11.3598 6.929 11.1887C7.09416 10.9669 7.29605 10.7071 7.53579 10.4177C8.35631 9.42706 9.61711 8.09206 11.3626 6.73946C14.8462 4.04003 20.2724 1.25952 28.0316 1.01404Z" stroke="#5864C5" stroke-width="2"/>
<path d="M27.5 54.9913C20.2741 54.9913 14.9866 52.2287 11.496 49.4629C9.74837 48.0781 8.45372 46.6939 7.5988 45.66C7.32932 45.3341 7.10398 45.0435 6.92234 44.7994C7.20514 44.6304 7.55157 44.4276 7.9546 44.1994C9.17631 43.5076 10.9142 42.5844 12.9738 41.6616C17.1158 39.8059 22.4627 37.9961 27.5 37.9961C32.5437 37.9961 38.1447 39.8094 42.5456 41.6701C44.7333 42.595 46.5986 43.5204 47.916 44.2141C48.3733 44.4548 48.7641 44.6674 49.0789 44.8421C48.9094 45.0787 48.6998 45.3582 48.4486 45.6704C47.6219 46.698 46.3484 48.0768 44.576 49.4578C41.0407 52.2124 35.5023 54.9913 27.5 54.9913Z" stroke="#5864C5" stroke-width="2"/>
<path d="M28 1.01367V55.0001" stroke="#5864C5" stroke-width="2"/>
<path d="M55 28.0078L1 28.0078" stroke="#5864C5" stroke-width="2"/>
</svg>
