<svg width="49" height="48" viewBox="0 0 49 48" fill="none" xmlns="http://www.w3.org/2000/svg">
<path d="M11 32.4118V39.5294L24.5 46L37.3571 39.5294V32.4118M11 32.4118L14.8571 35L24.5 27.2353M11 32.4118L2 25.9412L11 18.8235M37.3571 32.4118L46.3571 25.9412L37.3571 18.8235M37.3571 32.4118L33.5 35L24.5 27.2353M37.3571 18.8235L24.5 27.2353M37.3571 18.8235L47 11.0588L34.1429 2L24.5 10.4118M37.3571 18.8235L24.5 10.4118M24.5 27.2353L11 18.8235M11 18.8235L2 11.0588L14.8571 2L24.5 10.4118M11 18.8235L24.5 10.4118" stroke="#5864C5" stroke-width="2"/>
</svg>
