<svg width="56" height="56" viewBox="0 0 56 56" fill="none" xmlns="http://www.w3.org/2000/svg">
<path d="M47.4259 24.3503C47.3484 25.5638 46.8314 26.7075 45.9716 27.5673L23.3345 50.2044C21.3819 52.157 18.216 52.157 16.2634 50.2044L4.94972 38.8907C2.9971 36.9381 2.9971 33.7723 4.94972 31.8196L27.5868 9.18254C28.4466 8.32272 29.5903 7.80569 30.8038 7.72823L38.7618 7.22028C40.1958 7.12875 41.5998 7.65856 42.6158 8.67459L44.5477 10.6064L46.4795 12.5383C47.4956 13.5543 48.0254 14.9584 47.9339 16.3923L47.4259 24.3503Z" stroke="#5864C5" stroke-width="2"/>
<path d="M15.5566 39.5977L26.8703 28.2839" stroke="#5864C5" stroke-width="2" stroke-linecap="round"/>
<circle cx="36.7689" cy="18.3848" r="3" transform="rotate(135 36.7689 18.3848)" stroke="#5864C5" stroke-width="2"/>
</svg>
