<svg width="30" height="29" viewBox="0 0 30 29" fill="none" xmlns="http://www.w3.org/2000/svg">
<path d="M24.3985 7.64088C24.0777 5.73465 23.1339 3.99498 21.6903 2.67481C20.0864 1.20658 18.0012 0.398438 15.8297 0.398438C14.1518 0.398438 12.517 0.879622 11.1166 1.78647C9.95065 2.53909 8.98211 3.55698 8.29735 4.75377C8.00123 4.69825 7.69278 4.66741 7.38433 4.66741C4.76249 4.66741 2.62801 6.80189 2.62801 9.42373C2.62801 9.76303 2.66502 10.09 2.72671 10.4108C1.03023 11.6446 0 13.631 0 15.747C0 17.4558 0.63541 19.1153 1.79519 20.4293C2.98581 21.7741 4.55891 22.5699 6.23689 22.6625C6.2554 22.6625 6.26774 22.6625 6.28624 22.6625H11.5916C12.0543 22.6625 12.4244 22.2923 12.4244 21.8297C12.4244 21.367 12.0543 20.9968 11.5916 20.9968H6.31092C3.78779 20.8426 1.66564 18.4429 1.66564 15.7408C1.66564 13.995 2.60333 12.3664 4.11474 11.4842C4.46638 11.2806 4.61444 10.8549 4.47872 10.4725C4.35534 10.1393 4.29365 9.7877 4.29365 9.41139C4.29365 7.70874 5.68168 6.32071 7.38433 6.32071C7.7483 6.32071 8.10611 6.3824 8.43924 6.50578C8.84639 6.65384 9.29673 6.46876 9.4818 6.08012C10.6354 3.63101 13.1277 2.05174 15.8359 2.05174C19.4756 2.05174 22.48 4.77845 22.8254 8.3935C22.8624 8.76981 23.1462 9.0721 23.5163 9.13379C26.2616 9.60263 28.3344 12.1381 28.3344 15.0314C28.3344 18.0974 25.9223 20.7624 22.9488 20.9907H18.4022C17.9395 20.9907 17.5694 21.3608 17.5694 21.8235C17.5694 22.2862 17.9395 22.6563 18.4022 22.6563H22.9796C22.9981 22.6563 23.0167 22.6563 23.0413 22.6563C24.9229 22.5206 26.6811 21.6569 27.9889 20.2134C29.2906 18.7822 30 16.9438 30 15.0314C29.9938 11.5706 27.6311 8.49221 24.3985 7.64088Z" fill="#5864C5"/>
<path d="M19.9998 16.5351C20.3268 16.2082 20.3268 15.6838 19.9998 15.3568L15.5889 10.946C15.4347 10.7918 15.2188 10.6992 15.0029 10.6992C14.787 10.6992 14.571 10.7856 14.4168 10.946L10.006 15.3568C9.679 15.6838 9.679 16.2082 10.006 16.5351C10.1664 16.6955 10.3823 16.7819 10.592 16.7819C10.8018 16.7819 11.0177 16.7017 11.1781 16.5351L14.1701 13.5431V27.2939C14.1701 27.7566 14.5402 28.1267 15.0029 28.1267C15.4656 28.1267 15.8357 27.7566 15.8357 27.2939V13.5431L18.8277 16.5351C19.1485 16.8621 19.6728 16.8621 19.9998 16.5351Z" fill="#5864C5"/>
</svg>
