<svg width="128" height="128" viewBox="0 0 128 128" fill="none" xmlns="http://www.w3.org/2000/svg">
<path d="M117.754 32.751L75.2532 21.3629C51.7807 15.0735 27.6538 29.0031 21.3644 52.4756C15.075 75.9481 29.0046 100.075 52.4771 106.364L94.9778 117.752L117.754 32.751Z" fill="#EBCAAD"/>
<path d="M79.6151 54.9445C79.6151 56.4846 79.4901 57.6307 79.1857 58.6572C78.8834 59.6768 78.3876 60.6332 77.5774 61.7694C76.4974 63.2839 74.9377 65.0196 72.6629 67.5512C71.6019 68.7319 70.3855 70.0857 68.9896 71.6709C67.7714 70.3004 66.6876 69.1011 65.7233 68.0339C63.3337 65.3896 61.6773 63.5567 60.5266 61.9416C59.6953 60.7748 59.1683 59.7719 58.8415 58.7114C58.5136 57.6477 58.3711 56.4738 58.3711 54.9445C58.3711 49.1411 63.1186 44.4219 68.9931 44.4219C74.8676 44.4219 79.6151 49.1411 79.6151 54.9445Z" stroke="#1C2545" stroke-width="2"/>
<path d="M73.2764 54.9817C73.2764 57.314 71.3671 59.2193 68.9937 59.2193C66.6203 59.2193 64.7109 57.314 64.7109 54.9817C64.7109 52.6494 66.6203 50.7441 68.9937 50.7441C71.3671 50.7441 73.2764 52.6494 73.2764 54.9817Z" stroke="#1C2545" stroke-width="2"/>
<path d="M71.9445 68.1973C75.7922 68.8146 78.5747 70.6055 78.5747 72.7185C78.5747 75.3424 74.2837 77.4696 68.9905 77.4696C63.6972 77.4696 59.4062 75.3424 59.4062 72.7185C59.4062 70.6055 62.1888 68.8146 66.0364 68.1973" stroke="#1C2545" stroke-width="2"/>
<path d="M106 25.5292V91.9683L81 102.908L55.4009 91.7061C55.1453 91.5943 54.8547 91.5943 54.5991 91.7061L30 102.471V36.0317L55 25.0916L80.5991 36.2939C80.8547 36.4057 81.1453 36.4057 81.4009 36.2939L106 25.5292Z" stroke="#1C2545" stroke-width="2" stroke-linecap="round" stroke-linejoin="round"/>
</svg>
