<svg width="128" height="128" viewBox="0 0 128 128" fill="none" xmlns="http://www.w3.org/2000/svg">
<path d="M10 32.7764L52.5007 21.3883C75.9732 15.0989 100.1 29.0285 106.39 52.501C112.679 75.9735 98.7493 100.1 75.2768 106.39L32.7761 117.778L10 32.7764Z" fill="#B8D8D8"/>
<path d="M55.8914 36.3754H52.9837C52.27 36.3754 51.6914 35.7968 51.6914 35.0831V34.0276C51.6914 33.6704 51.8393 33.3291 52.0999 33.0848L61.117 24.6312C61.6259 24.1542 62.4215 24.167 62.9147 24.6602L71.3437 33.0892C71.586 33.3315 71.7222 33.6602 71.7222 34.003V35.0831C71.7222 35.7968 71.1436 36.3754 70.4299 36.3754H67.8453M55.8914 36.3754V42.8369M55.8914 36.3754H67.8453M55.8914 42.8369H52.9837C52.27 42.8369 51.6914 43.4155 51.6914 44.1292V47.36C51.6914 48.0737 52.27 48.6523 52.9837 48.6523H55.2453M55.8914 42.8369H67.8453M67.8453 36.3754V42.8369M67.8453 42.8369H70.4299C71.1436 42.8369 71.7222 43.4155 71.7222 44.1292V47.36C71.7222 48.0737 71.1436 48.6523 70.4299 48.6523H67.8453M67.8453 48.6523L71.7222 93.2369M67.8453 48.6523H55.2453M55.2453 48.6523L51.6914 93.2369" stroke="#1C2545" stroke-width="2"/>
<path d="M68.1685 53.8213L53.9531 62.5444" stroke="#1C2545" stroke-width="2"/>
<path d="M70.1063 73.5293L52.6602 84.837" stroke="#1C2545" stroke-width="2"/>
<path d="M21 98.7288C25.5414 98.7288 26.3552 93.5596 31.0154 93.5596C35.6755 93.5596 36.3706 98.7288 41.0308 98.7288C45.6909 98.7288 46.386 93.5596 51.0462 93.5596C55.7063 93.5596 56.4014 98.7288 61.0615 98.7288C65.7217 98.7288 66.4168 93.5596 71.0769 93.5596C75.7371 93.5596 76.4322 98.7288 81.0923 98.7288C85.7525 98.7288 86.4475 93.5596 91.1077 93.5596C95.7678 93.5596 97.2305 98.7288 101.123 98.7288" stroke="#1C2545" stroke-width="2" stroke-linecap="round"/>
<path d="M81.0928 109.775C76.4326 109.775 75.7376 104.605 71.0774 104.605C66.4173 104.605 65.7222 109.775 61.062 109.775C56.4019 109.775 55.7068 104.605 51.0466 104.605C46.3865 104.605 45.6914 109.775 41.0312 109.775" stroke="#1C2545" stroke-width="2" stroke-linecap="round"/>
<path d="M46.8456 32.4983C44.322 31.7123 42.0386 30.4238 39.5584 29.5188C35.5578 28.0592 31.4872 26.779 27.4609 25.3906" stroke="#1C2545" stroke-width="2" stroke-linecap="round" stroke-linejoin="round"/>
<path d="M45.5526 44.4521C38.87 45.6455 32.8533 48.9159 26.168 49.9445" stroke="#1C2545" stroke-width="2" stroke-linecap="round" stroke-linejoin="round"/>
<path d="M43.6151 38.3135C39.7239 38.2788 35.8692 38.1921 31.9844 38.3135" stroke="#1C2545" stroke-width="2" stroke-linecap="round" stroke-linejoin="round"/>
<path d="M77.8615 32.8216C80.3851 32.0355 82.6684 30.747 85.1487 29.8421C89.1493 28.3824 93.2198 27.1022 97.2461 25.7139" stroke="#1C2545" stroke-width="2" stroke-linecap="round" stroke-linejoin="round"/>
<path d="M79.1544 44.7754C85.8371 45.9687 91.8537 49.2392 98.5391 50.2677" stroke="#1C2545" stroke-width="2" stroke-linecap="round" stroke-linejoin="round"/>
<path d="M81.0919 38.6368C84.9831 38.602 88.8379 38.5154 92.7227 38.6368" stroke="#1C2545" stroke-width="2" stroke-linecap="round" stroke-linejoin="round"/>
</svg>
