<svg width="128" height="128" viewBox="0 0 128 128" fill="none" xmlns="http://www.w3.org/2000/svg">
<path d="M32.7539 9.97656L75.2546 21.3646C98.7272 27.654 112.657 51.7809 106.367 75.2534C100.078 98.7259 75.9511 112.656 52.4786 106.366L9.97783 94.978L32.7539 9.97656Z" fill="#B6C0E2"/>
<path d="M67.808 62.591L55.712 55.871M67.808 62.591V95.999M67.808 62.591L79.904 53.087M31.8006 63.743L20 73.535V95.999H31.8006M31.8006 63.743V95.999M31.8006 63.743L43.616 53.9388M31.8006 95.999H43.616M43.616 53.9388L47.072 51.071L55.712 55.871M43.616 53.9388V95.999M43.616 95.999H55.712M55.712 55.871V95.999M55.712 95.999H67.808M67.808 95.999H79.904M79.904 53.087L92 43.583V95.999H79.904M79.904 53.087V95.999" stroke="#1C2545" stroke-width="2" stroke-linecap="round" stroke-linejoin="round"/>
<path d="M19.3713 52.0224C18.9418 52.3696 18.8751 52.9992 19.2224 53.4287C19.5696 53.8582 20.1992 53.9249 20.6287 53.5776L19.3713 52.0224ZM47.072 30.912L47.5681 30.0438C47.2103 29.8393 46.7637 29.8753 46.4433 30.1344L47.072 30.912ZM67.232 42.432L66.7359 43.3002C67.092 43.5038 67.5364 43.4691 67.8567 43.2129L67.232 42.432ZM91.2659 24.1104C91.3269 23.5615 90.9313 23.0671 90.3824 23.0061L81.4375 22.0122C80.8886 21.9512 80.3942 22.3468 80.3332 22.8957C80.2722 23.4446 80.6677 23.939 81.2166 24L89.1677 24.8835L88.2842 32.8345C88.2232 33.3834 88.6188 33.8778 89.1677 33.9388C89.7166 33.9998 90.211 33.6043 90.272 33.0554L91.2659 24.1104ZM20.6287 53.5776L47.7007 31.6896L46.4433 30.1344L19.3713 52.0224L20.6287 53.5776ZM46.5759 31.7802L66.7359 43.3002L67.7281 41.5638L47.5681 30.0438L46.5759 31.7802ZM67.8567 43.2129L90.8967 24.7809L89.6473 23.2191L66.6073 41.6511L67.8567 43.2129Z" fill="#1C2545"/>
</svg>
