<svg width="32" height="32" viewBox="0 0 32 32" fill="none" xmlns="http://www.w3.org/2000/svg">
<path d="M24.5 25H7.5V27H24.5V25Z" fill="#1C2545"/>
<path d="M24.95 32H7.05L6.55 19.8C3.2 18.75 1 15.9 1 12.5C1 8.15 4.5 4.6 8.8 4.5C10.15 1.8 12.95 0 16 0C19.05 0 21.85 1.8 23.2 4.5C27.5 4.6 31 8.15 31 12.5C31 16.2 28.85 19 25.45 19.85L24.95 32ZM8.95 30H23.05L23.55 18.15L24.35 18.05C27.25 17.65 29 15.55 29 12.55C29 9.25 26.3 6.55 23 6.55C22.9 6.55 22.8 6.55 22.7 6.55L21.85 6.6L21.6 5.9C20.75 3.55 18.45 2 16 2C13.55 2 11.25 3.55 10.4 5.9L10.15 6.6L9.3 6.5C9.2 6.5 9.1 6.5 9 6.5C5.7 6.5 3 9.2 3 12.5C3 15.25 4.85 17.4 7.7 18L8.45 18.15L8.95 30Z" fill="#1C2545"/>
<path d="M12 27C11.45 27 11 26.55 11 26V21C11 20.45 11.45 20 12 20C12.55 20 13 20.45 13 21V26C13 26.55 12.55 27 12 27Z" fill="#1C2545"/>
<path d="M20 27C19.45 27 19 26.55 19 26V21C19 20.45 19.45 20 20 20C20.55 20 21 20.45 21 21V26C21 26.55 20.55 27 20 27Z" fill="#1C2545"/>
<path d="M16 27C15.45 27 15 26.55 15 26V18C15 17.45 15.45 17 16 17C16.55 17 17 17.45 17 18V26C17 26.55 16.55 27 16 27Z" fill="#1C2545"/>
</svg>
