<svg width="32" height="22" viewBox="0 0 32 22" fill="none" xmlns="http://www.w3.org/2000/svg">
<path d="M30 17.9502H28C28 11.3502 22.6 5.9502 16 5.9502C9.4 5.9502 4 11.3502 4 17.9502H2C2 10.2502 8.3 3.9502 16 3.9502C23.7 3.9502 30 10.2502 30 17.9502Z" fill="#1C2545"/>
<path d="M19 4.65H17V3C17 2.45 16.55 2 16 2C15.45 2 15 2.45 15 3V4.65H13V3C13 1.35 14.35 0 16 0C17.65 0 19 1.35 19 3V4.65Z" fill="#1C2545"/>
<path d="M25.5002 16.35C25.1002 16.35 24.7002 16.1 24.5502 15.65C23.6502 12.8 21.3502 10.6 18.5002 9.8C17.9502 9.65 17.6502 9.1 17.8002 8.55C17.9502 8 18.5002 7.70001 19.0502 7.85C22.5502 8.85 25.3002 11.55 26.4502 15C26.6002 15.5 26.3502 16.1 25.8002 16.25C25.7002 16.35 25.6002 16.35 25.5002 16.35Z" fill="#1C2545"/>
<path d="M31 2H24.25C23.7 2 23.25 1.55 23.25 1C23.25 0.45 23.7 0 24.25 0H31C31.55 0 32 0.45 32 1C32 1.55 31.55 2 31 2Z" fill="#1C2545"/>
<path d="M31 5H26C25.45 5 25 4.55 25 4C25 3.45 25.45 3 26 3H31C31.55 3 32 3.45 32 4C32 4.55 31.55 5 31 5Z" fill="#1C2545"/>
<path d="M30.9984 8H28.6484C28.0984 8 27.6484 7.55 27.6484 7C27.6484 6.45 28.0984 6 28.6484 6H30.9984C31.5484 6 31.9984 6.45 31.9984 7C31.9984 7.55 31.5484 8 30.9984 8Z" fill="#1C2545"/>
<path d="M29.5 22H2.5C1.1 22 0 20.9 0 19.5C0 18.1 1.1 17 2.5 17H29.5C30.9 17 32 18.1 32 19.5C32 20.9 30.9 22 29.5 22ZM2.5 19C2.25 19 2 19.25 2 19.5C2 19.75 2.25 20 2.5 20H29.5C29.75 20 30 19.75 30 19.5C30 19.25 29.75 19 29.5 19H2.5Z" fill="#1C2545"/>
</svg>
