<svg width="91" height="141" viewBox="0 0 91 141" fill="none" xmlns="http://www.w3.org/2000/svg">
<path d="M22.4904 75.9336C17.7877 93.4846 7.73039 87.8969 9.40433 108.604C11.3707 132.929 46.3467 140.209 59.9806 119.262C71.2085 102.012 65.2961 89.527 54.6665 74.4264C48.3889 65.5084 52.5306 60.83 64.0073 23.3876" stroke="#E74318" stroke-width="4" stroke-linecap="round" stroke-linejoin="round"/>
<path d="M22.1289 77.2832C23.2147 82.4213 20.8681 92.9276 22.4535 97.6289" stroke="#E74318" stroke-width="4" stroke-linecap="round" stroke-linejoin="round"/>
<path d="M71.9657 18.2844C71.0518 21.6951 67.5546 23.7142 64.1608 22.8048C60.7669 21.8954 58.7477 18.3983 59.6617 14.9875C60.5756 11.5767 64.0728 9.55767 67.4666 10.4671C70.8605 11.3765 72.8796 14.8736 71.9657 18.2844Z" stroke="#E74318" stroke-width="4"/>
</svg>
