<svg width="108" height="109" viewBox="0 0 108 109" fill="none" xmlns="http://www.w3.org/2000/svg">
<path d="M0 23.7734L42.5007 12.3854C65.9732 6.09596 90.1001 20.0256 96.3895 43.4981C102.679 66.9706 88.7493 91.0974 65.2768 97.3869L22.7761 108.775L0 23.7734Z" fill="#EBCAAD"/>
<path d="M54.7933 42.1559C58.1498 35.2842 61.8869 32.0732 70.474 27.7892C71.1033 27.4753 71.73 27.6837 71.7937 28.2244L71.8734 28.901C71.9337 29.4123 72.6923 29.4201 73.1041 28.9137V28.9137C73.4786 28.4533 74.1563 28.4108 74.2465 28.8621C74.8752 32.0091 73.5189 35.5846 71.5375 41.2888" stroke="#1C2545" stroke-width="2" stroke-linecap="round" stroke-linejoin="round"/>
<path d="M73.628 34.3516C70.3246 37.9286 65.5201 36.5873 63.6406 34.3516" stroke="#1C2545" stroke-width="2" stroke-linecap="round" stroke-linejoin="round"/>
<path d="M73.5077 42.9126C71.0637 42.9126 71.4672 40.6133 69.0232 40.6133C66.5792 40.6133 65.4467 42.9126 63.0027 42.9126C60.5587 42.9126 60.9621 40.6133 58.5182 40.6133C56.0742 40.6133 54.9416 42.9126 52.4976 42.9126" stroke="#1C2545" stroke-width="2" stroke-linecap="round"/>
<circle r="0.914142" transform="matrix(1 0 -0.316808 0.94849 68.5542 31.7499)" fill="#1C2545"/>
<path d="M4.49867 93.8803C22.998 63.5011 10.9986 44.0012 29.9985 18.0012C52.0838 15.2571 64.8619 15.3888 88.2919 18.0012C71.9987 43.0012 79.4987 65.5011 62.9473 93.8803C41.5045 92.669 28.6058 92.7316 4.49867 93.8803Z" stroke="#1C2545" stroke-width="2" stroke-linecap="round" stroke-linejoin="round"/>
<path d="M35.582 30.6475H47.7032" stroke="#1C2545" stroke-width="2" stroke-linecap="round" stroke-linejoin="round"/>
<path d="M33.4062 37.1641H47.5477" stroke="#1C2545" stroke-width="2" stroke-linecap="round" stroke-linejoin="round"/>
<path d="M41.8945 52.875H56.0359" stroke="#1C2545" stroke-width="2" stroke-linecap="round" stroke-linejoin="round"/>
<path d="M25.5977 60.5391H66.0017" stroke="#1C2545" stroke-width="2" stroke-linecap="round" stroke-linejoin="round"/>
<path d="M23.293 67.4375H63.697" stroke="#1C2545" stroke-width="2" stroke-linecap="round" stroke-linejoin="round"/>
<path d="M20.9922 74.335H61.3962" stroke="#1C2545" stroke-width="2" stroke-linecap="round" stroke-linejoin="round"/>
<path d="M18.8164 80.8516H48.7154" stroke="#1C2545" stroke-width="2" stroke-linecap="round" stroke-linejoin="round"/>
</svg>
