<svg width="142" height="153" viewBox="0 0 142 153" fill="none" xmlns="http://www.w3.org/2000/svg">
<path d="M83.057 19.7635C85.1533 18.5988 87.7963 19.5279 88.7028 21.7481L92.4676 30.9686L94.3192 30.2126L92.4676 30.9686C93.7976 34.2259 97.0995 36.2319 100.603 35.9113L109.524 35.0948C112.169 34.8528 114.311 37.2083 113.82 39.8184L112.182 48.5123C111.589 51.6665 112.937 54.8702 115.608 56.65L122.603 61.311C124.635 62.6653 124.99 65.5086 123.353 67.3209L115.972 75.4926C113.918 77.7666 113.344 81.014 114.493 83.8548L117.807 92.0476C118.87 94.6771 116.935 97.5475 114.098 97.5475L105.679 97.5475C102.329 97.5475 99.3335 99.6347 98.1736 102.777L93.8489 114.495C93.0047 116.782 90.3278 117.788 88.1857 116.624L79.0018 111.63C76.3659 110.197 73.1497 110.359 70.6713 112.051L62.2054 117.827C60.1834 119.207 57.4075 118.463 56.3463 116.257L51.903 107.022C50.6022 104.318 47.898 102.569 44.8987 102.493L35.4909 102.252C32.8294 102.183 30.976 99.5828 31.7801 97.0448L34.1081 89.6966C35.1419 86.4334 33.985 82.874 31.2302 80.8422L21.0938 73.3662C19.1742 71.9504 18.9124 69.1798 20.533 67.4295L26.8753 60.5795C28.5995 58.7173 29.3379 56.1474 28.8651 53.654L26.9632 43.6236C26.496 41.1596 28.3853 38.8784 30.8932 38.8784L41.4072 38.8784C45.0199 38.8784 48.1842 36.4572 49.1289 32.9703L51.9138 22.6902C52.5954 20.1745 55.4624 18.9721 57.7346 20.2492L65.9904 24.8895C68.4122 26.2508 71.3668 26.2581 73.7953 24.9089L83.057 19.7635L82.0857 18.0152L83.057 19.7635Z" stroke="white" stroke-width="4"/>
<path d="M92.1212 73.8796C90.6163 79.4961 87.7145 83.9598 83.6215 86.5777C79.5644 89.1726 74.07 90.1253 66.9954 88.2297C61.3465 86.716 57.0025 83.7714 54.4334 79.9755C51.8877 76.214 50.9729 71.4586 52.4303 66.0193C53.9041 60.5191 57.5024 55.4639 62.1226 52.1759C66.7326 48.8952 72.2162 47.4635 77.5367 48.8891C88.518 51.8315 95.028 63.0315 92.1212 73.8796Z" stroke="white" stroke-width="4"/>
<path d="M70.7967 113.125C70.0984 123.282 73.0389 129.731 80.609 142.759L92.6725 132.137L108.566 135.379C101.671 119.897 100.347 111.74 100.607 102.405" stroke="white" stroke-width="4" stroke-linecap="round" stroke-linejoin="round"/>
<path d="M51.3504 108.125C41.4743 119.341 36.5286 123.277 28.0358 128.883L22.8998 113.651L7.515 108.512C16.7411 101.842 22.113 97.1441 32.9974 82.5" stroke="white" stroke-width="4" stroke-linecap="round" stroke-linejoin="round"/>
</svg>
