<svg width="128" height="128" viewBox="0 0 128 128" fill="none" xmlns="http://www.w3.org/2000/svg">
<path d="M15 32.7832L57.5007 21.3952C80.9732 15.1057 105.1 29.0354 111.39 52.5079C117.679 75.9804 103.749 100.107 80.2768 106.397L37.7761 117.785L15 32.7832Z" fill="#89BEBE"/>
<path d="M19.5006 102.878C38 72.4992 26.0006 52.9992 45.0004 26.9992C67.0858 24.2551 79.8639 24.3869 103.294 26.9992C87.0007 51.9992 94.5007 74.4992 77.9493 102.878C56.5065 101.667 43.6077 101.73 19.5006 102.878Z" stroke="#1C2545" stroke-width="2" stroke-linecap="round" stroke-linejoin="round"/>
<path d="M58.999 47.9902H81.499" stroke="#1C2545" stroke-width="2" stroke-linecap="round" stroke-linejoin="round"/>
<path d="M61 41.9883H80.5" stroke="#1C2545" stroke-width="2" stroke-linecap="round" stroke-linejoin="round"/>
<path d="M49 38.9941L50 40.998L53.5 37.998" stroke="#1C2545" stroke-width="2" stroke-linecap="round"/>
<path d="M46 47.9941L47 49.998L50.5 46.998" stroke="#1C2545" stroke-width="2" stroke-linecap="round"/>
<path d="M44 57.9941L45 59.998L48.5 56.998" stroke="#1C2545" stroke-width="2" stroke-linecap="round"/>
<path d="M62 32.9902H77" stroke="#1C2545" stroke-width="2" stroke-linecap="round" stroke-linejoin="round"/>
<path d="M56.999 54.9902H74.999" stroke="#1C2545" stroke-width="2" stroke-linecap="round" stroke-linejoin="round"/>
<path d="M56.001 61.9883H76.001" stroke="#1C2545" stroke-width="2" stroke-linecap="round" stroke-linejoin="round"/>
<path d="M40.6006 69.5391H81.0046" stroke="#1C2545" stroke-width="2" stroke-linecap="round" stroke-linejoin="round"/>
<path d="M38.2969 76.4355H78.7009" stroke="#1C2545" stroke-width="2" stroke-linecap="round" stroke-linejoin="round"/>
<path d="M35.9932 83.334H76.3972" stroke="#1C2545" stroke-width="2" stroke-linecap="round" stroke-linejoin="round"/>
<path d="M33.8174 89.8477H63.7164" stroke="#1C2545" stroke-width="2" stroke-linecap="round" stroke-linejoin="round"/>
</svg>
