<svg width="158" height="165" viewBox="0 0 158 165" fill="none" xmlns="http://www.w3.org/2000/svg">
<path d="M54.9414 39.7461C74.1671 64.4666 88.4436 91.7339 103.364 118.983C106.555 124.81 108.988 131.04 112.381 136.917" stroke="#E74318" stroke-width="4" stroke-linecap="round" stroke-linejoin="round"/>
<path d="M121.159 68.7007C126.934 81.9947 132.231 100.511 124.114 113.724C118.032 123.623 107.76 129.922 96.7269 132.969C76.4054 138.582 53.0274 128.186 37.3008 115.772" stroke="#E74318" stroke-width="4" stroke-linecap="round" stroke-linejoin="round"/>
<path d="M119.41 65.6778C117.935 74.7094 116.226 98.4732 116.257 90.341C116.277 84.7816 118.408 71.1666 119.41 65.6778ZM119.41 65.6778C120.276 60.9254 136.822 77.5026 139.494 79.6114" stroke="#E74318" stroke-width="4" stroke-linecap="round" stroke-linejoin="round"/>
<path d="M37.3008 115.772C45.9389 116.832 54.6572 119.188 63.5061 119.454" stroke="#E74318" stroke-width="4" stroke-linecap="round" stroke-linejoin="round"/>
<path d="M78.4159 66.502C72.6039 69.8576 67.0472 73.1478 61.9412 77.3573" stroke="#E74318" stroke-width="4" stroke-linecap="round" stroke-linejoin="round"/>
<path d="M62.9426 76.7795C69.5685 72.7879 78.7046 66.2242 85.1468 61.9453" stroke="#E74318" stroke-width="4" stroke-linecap="round" stroke-linejoin="round"/>
<path d="M53.9794 24.179C45.4227 24.9337 39.9998 34.722 44.3921 42.3296C46.0673 45.2311 52.8707 43.8548 55.5541 43.1261C59.6595 42.0111 63.2324 36.5586 61.7274 32.3211C60.1925 27.9995 54.1965 26.5456 50.3876 24.9091" stroke="#E74318" stroke-width="4" stroke-linecap="round" stroke-linejoin="round"/>
<path d="M37.2753 115.737C39.9425 120.557 43.5554 124.46 45.328 129.685C46.0268 131.745 48.744 138.43 47.6563 136.546" stroke="#E74318" stroke-width="4" stroke-linecap="round" stroke-linejoin="round"/>
</svg>
