<svg width="109" height="134" viewBox="0 0 109 134" fill="none" xmlns="http://www.w3.org/2000/svg">
<path d="M31.3452 130.031C30.3158 104.982 29.8266 90.7974 31.2852 74.5728C31.3375 73.9913 31.8797 73.5802 32.4558 73.6752C38.906 74.7394 42.5877 74.6169 47.9791 73.6922C48.5759 73.5899 49.1322 74.0522 49.1601 74.6571C50.9109 112.696 50.1721 118.198 49.1823 130.077C49.1391 130.595 48.7053 130.998 48.1846 130.998H32.3446C31.8083 130.998 31.3672 130.567 31.3452 130.031Z" stroke="white" stroke-width="4" stroke-linecap="round" stroke-linejoin="round"/>
<path d="M3.2946 130.111C1.6015 116.018 1.53075 107.821 3.30934 93.6928C3.36353 93.2623 3.69169 92.9111 4.11891 92.8351C10.3556 91.7259 14.1429 91.8081 20.3703 92.8388C20.8144 92.9123 21.154 93.2792 21.1969 93.7273C22.3684 105.975 22.3208 114.361 21.1907 130.062C21.1531 130.584 20.7175 130.994 20.1936 130.994H4.28659C3.78141 130.994 3.35486 130.613 3.2946 130.111Z" stroke="white" stroke-width="4" stroke-linecap="round" stroke-linejoin="round"/>
<path d="M60.3629 129.932C61.9553 104.034 62.5035 88.1124 60.3521 52.1528C60.3214 51.6388 60.6871 51.1724 61.1962 51.095C67.8753 50.0797 71.6845 50.0033 77.3206 51.0954C77.7381 51.1763 78.0558 51.5091 78.1075 51.9311C79.5201 63.4594 79.0985 86.2668 78.0419 130.014C78.0288 130.557 77.5848 131.001 77.042 131.001H61.3607C60.7841 131.001 60.3275 130.507 60.3629 129.932Z" stroke="white" stroke-width="4" stroke-linecap="round" stroke-linejoin="round"/>
<path d="M88.2549 130.009C87.2669 92.4616 85.793 70.9968 88.2346 33.3781C88.2617 32.9606 88.5464 32.5945 88.9508 32.4872C92.9234 31.432 96.8704 31.5335 105.128 32.5654C105.628 32.6278 106.002 33.0673 106.002 33.5705C105.999 82.5722 106.002 100.439 106.002 129.985C106.002 130.537 105.554 130.993 105.002 130.993H89.255C88.7128 130.993 88.2691 130.551 88.2549 130.009Z" stroke="white" stroke-width="4" stroke-linecap="round" stroke-linejoin="round"/>
<path d="M1.81268 67.892C0.769231 68.2544 0.217081 69.394 0.579419 70.4374C0.941757 71.4809 2.08137 72.033 3.12482 71.6707L1.81268 67.892ZM103.334 3.04931C103.361 1.94508 102.488 1.02784 101.384 1.00061L83.389 0.55681C82.2848 0.529576 81.3676 1.40266 81.3403 2.50689C81.3131 3.61112 82.1862 4.52836 83.2904 4.55559L99.2855 4.95008L98.8911 20.9452C98.8638 22.0495 99.7369 22.9667 100.841 22.9939C101.945 23.0212 102.863 22.1481 102.89 21.0438L103.334 3.04931ZM3.12482 71.6707C40.6412 58.6431 62.314 42.9031 102.713 4.44865L99.9553 1.55135C59.7369 39.8337 38.5519 55.1343 1.81268 67.892L3.12482 71.6707Z" fill="white"/>
</svg>
