<svg width="66" height="66" viewBox="0 0 66 66" fill="none" xmlns="http://www.w3.org/2000/svg">
<path d="M2.55357 30.2506C4.87951 26.4525 9.96081 23.4208 18.7514 20.1918C20.6522 19.4936 21.2831 19.2 22.8371 18.5397M2.55357 30.2506C0.119069 34.226 0.703123 39.0409 3.21192 45.8003C4.03061 43.3221 3.89037 39.0323 7.2994 39.1917C4.78573 36.0665 3.2799 33.0786 2.55357 30.2506ZM2.55357 30.2506C0.208027 21.1185 5.9913 13.6551 12.2135 8.6267C17.716 4.18003 22.8091 2.20146 26.9259 1.429M2.55357 30.2506C4.24228 21.5827 8.95675 17.9086 19.566 12.7571M32.7814 13.5832C37.8398 10.258 38.6802 7.71078 39.1957 6.14846C40.0135 3.67022 38.3779 1.76155 34.2891 1.19198C32.5393 0.948238 30.0058 0.851117 26.9259 1.429M32.7814 13.5832C29.3793 14.4093 29.2447 12.5649 29.3793 11.1049M32.7814 13.5832C31.6685 14.3148 30.3514 15.084 28.7887 15.8887M26.9259 1.429C25.2904 3.67022 25.2904 5.32238 27.7437 6.14846M28.7887 15.8887C27.7437 18.5397 26.1082 19.3657 22.8371 24.3222C21.7497 21.5265 23.6548 20.1918 22.8371 18.5397M28.7887 15.8887C27.3777 16.6153 24.6791 17.7569 22.8371 18.5397" stroke="#1C2545" stroke-linecap="round" stroke-linejoin="round"/>
<circle r="0.800003" transform="matrix(1 0 0 -1 33.8 9.80009)" fill="#1C2545"/>
<circle r="0.800003" transform="matrix(1 0 0 -1 30.5988 3.3997)" fill="#1C2545"/>
<path d="M63.4464 35.7494C61.1205 39.5475 56.0392 42.5792 47.2486 45.8082C45.3478 46.5064 44.7169 46.8 43.1629 47.4603M63.4464 35.7494C65.8809 31.774 65.2969 26.9591 62.7881 20.1997C61.9694 22.6779 62.1096 26.9677 58.7006 26.8083C61.2143 29.9335 62.7201 32.9214 63.4464 35.7494ZM63.4464 35.7494C65.792 44.8815 60.0087 52.3449 53.7865 57.3733C48.284 61.82 43.1909 63.7985 39.0741 64.571M63.4464 35.7494C61.7577 44.4173 57.0432 48.0914 46.434 53.2429M33.2186 52.4168C28.1602 55.742 27.3198 58.2892 26.8043 59.8515C25.9865 62.3298 27.6221 64.2384 31.7109 64.808C33.4607 65.0518 35.9942 65.1489 39.0741 64.571M33.2186 52.4168C36.6207 51.5907 36.7553 53.4351 36.6207 54.8951M33.2186 52.4168C34.3315 51.6852 35.6486 50.916 37.2113 50.1113M39.0741 64.571C40.7096 62.3298 40.7096 60.6776 38.2563 59.8515M37.2113 50.1113C38.2563 47.4603 39.8918 46.6343 43.1629 41.6778C44.2503 44.4735 42.3451 45.8082 43.1629 47.4603M37.2113 50.1113C38.6223 49.3847 41.3209 48.2431 43.1629 47.4603" stroke="#1C2545" stroke-linecap="round" stroke-linejoin="round"/>
<circle r="0.800003" transform="matrix(-1 -8.74228e-08 -8.74228e-08 1 32.2 56.1994)" fill="#1C2545"/>
<circle r="0.800003" transform="matrix(-1 -8.74228e-08 -8.74228e-08 1 35.4012 62.6003)" fill="#1C2545"/>
</svg>
