<svg width="201" height="33" viewBox="0 0 201 33" fill="none" xmlns="http://www.w3.org/2000/svg">
<path d="M193 17C193 21.4183 196.582 25 201 25" stroke="#1B1F33" stroke-width="2"/>
<path d="M161 17C161 21.4183 164.582 25 169 25C173.418 25 177 21.4183 177 17" stroke="#1B1F33" stroke-width="2"/>
<path d="M177 17C177 21.4183 180.582 25 185 25C189.418 25 193 21.4183 193 17" stroke="#1B1F33" stroke-width="2"/>
<path d="M161 17C161 21.4183 157.418 25 153 25" stroke="#1B1F33" stroke-width="2"/>
<path d="M40 17C40 21.4183 43.5817 25 48 25" stroke="#1B1F33" stroke-width="2"/>
<path d="M8 17C8 21.4183 11.5817 25 16 25C20.4183 25 24 21.4183 24 17" stroke="#1B1F33" stroke-width="2"/>
<path d="M24 17C24 21.4183 27.5817 25 32 25C36.4183 25 40 21.4183 40 17" stroke="#1B1F33" stroke-width="2"/>
<path d="M8 17C8 21.4183 4.41828 25 1.07288e-06 25" stroke="#1B1F33" stroke-width="2"/>
<path d="M106.315 9.8042C106.789 12.5082 107.126 17.4146 104.726 22.0624C100.828 29.7661 93.3614 30.913 93.3614 30.913C93.3614 30.913 90.4978 24.5645 94.4617 16.5543C96.5266 12.1495 100.248 9.83788 102.869 8.69662C102.354 8.61523 101.829 8.56461 101.294 8.55278V8.54568H88V33H101.294V32.9938C107.783 32.8496 113 27.4355 113 20.7728C113 15.9586 110.275 11.7974 106.315 9.8042" fill="#151D2E"/>
<path d="M96.5721 27.0189C96.5721 27.6371 96.0708 28.1387 95.4518 28.1387C94.8333 28.1387 94.332 27.6371 94.332 27.0189C94.332 26.4002 94.8333 25.8991 95.4518 25.8991C96.0708 25.8991 96.5721 26.4002 96.5721 27.0189Z" fill="#151D2E"/>
<path d="M110.867 4.22588C110.867 4.22588 108.019 3.31276 106.381 4.90721C106.381 4.90667 106.381 4.90667 106.381 4.90667C106.585 2.6307 104.079 0.998186 104.079 0.998186C103.695 1.33539 103.373 1.75199 103.14 2.23996C102.202 4.21313 103.087 6.59544 105.118 7.56063C105.119 7.56118 105.117 7.56063 105.118 7.56063L105.119 7.56118C105.119 7.56136 105.118 7.56063 105.119 7.56118C107.149 8.52637 109.557 7.71012 110.496 5.73749C110.728 5.24952 110.848 4.73624 110.867 4.22588Z" fill="#151D2E"/>
</svg>
