<svg width="32" height="32" viewBox="0 0 32 32" fill="none" xmlns="http://www.w3.org/2000/svg">
<path d="M27.4395 10.5375L21.8145 9.0375C21.6645 9 21.5145 9 21.402 9.0375L20.6895 9.2625C20.802 8.8125 20.9145 8.3625 20.9145 7.9125C20.877 5.2125 18.702 3 16.002 3C13.302 3 11.127 5.2125 11.127 7.95C11.127 8.4 11.202 8.85 11.3145 9.3L10.602 9.075C10.452 9.0375 10.302 9.0375 10.1895 9.075L4.56445 10.575C4.22695 10.6125 4.00195 10.9125 4.00195 11.25V24.75C4.00195 25.0875 4.22695 25.3875 4.56445 25.4625L10.1895 26.9625C10.2645 26.9625 10.302 27 10.377 27C10.452 27 10.4895 27 10.5645 26.9625L16.002 25.5375L21.4395 27C21.5145 27 21.552 27.0375 21.627 27.0375C21.702 27.0375 21.7395 27.0375 21.8145 27L27.4395 25.5C27.777 25.425 28.002 25.125 28.002 24.7875V11.25C28.002 10.9125 27.777 10.6125 27.4395 10.5375ZM16.002 4.5C17.877 4.5 19.377 6.0375 19.377 7.95C19.377 9.9 17.127 12.6 16.002 13.875C14.877 12.5625 12.627 9.9375 12.627 7.95C12.627 6.0375 14.127 4.5 16.002 4.5ZM9.62695 25.275L5.50195 24.1875V11.8125L9.62695 10.725V25.275ZM11.127 25.275V10.8L12.102 11.1375C13.002 12.75 14.277 14.175 15.027 15.075C15.102 15.15 15.177 15.225 15.2145 15.3V24.1875L11.127 25.275ZM20.877 25.275L16.752 24.1875V15.2625C16.827 15.1875 16.902 15.075 16.977 15C17.727 14.1375 19.002 12.7125 19.8645 11.1375L20.877 10.8V25.275V25.275ZM26.502 24.1875L22.377 25.275V10.725L26.502 11.8125V24.1875Z" fill="#1C2545"/>
<path d="M18.252 7.875C18.252 6.6375 17.2395 5.625 16.002 5.625C14.7645 5.625 13.752 6.6375 13.752 7.875C13.752 9.1125 14.7645 10.125 16.002 10.125C17.2395 10.125 18.252 9.1125 18.252 7.875ZM15.252 7.875C15.252 7.4625 15.5895 7.125 16.002 7.125C16.4145 7.125 16.752 7.4625 16.752 7.875C16.752 8.2875 16.4145 8.625 16.002 8.625C15.5895 8.625 15.252 8.2875 15.252 7.875Z" fill="#1C2545"/>
</svg>
