<svg width="124" height="128" viewBox="0 0 124 128" fill="none" xmlns="http://www.w3.org/2000/svg">
<path d="M80.0535 49.5105C80.0535 51.955 79.8561 53.7477 79.3869 55.3403C78.9217 56.9193 78.1571 58.4103 76.8869 60.2029C75.1828 62.608 72.7268 65.3587 69.1259 69.3918C67.5149 71.196 65.6749 73.2569 63.5705 75.6583C61.7475 73.5972 60.1197 71.7843 58.6655 70.1647C54.8806 65.9494 52.2713 63.0434 50.4557 60.4786C49.1514 58.6361 48.3363 57.0693 47.8322 55.4231C47.3261 53.7703 47.1016 51.9335 47.1016 49.5105C47.1016 40.437 54.4741 33.0742 63.5775 33.0742C72.681 33.0742 80.0535 40.437 80.0535 49.5105Z" stroke="white" stroke-width="4"/>
<path d="M69.976 49.5676C69.976 53.0872 67.1155 55.9477 63.5779 55.9477C60.0402 55.9477 57.1797 53.0872 57.1797 49.5676C57.1797 46.048 60.0402 43.1875 63.5779 43.1875C67.1155 43.1875 69.976 46.048 69.976 49.5676Z" stroke="white" stroke-width="4"/>
<path d="M68.2685 70.7109C74.3853 71.6987 78.8088 74.564 78.8088 77.9448C78.8088 82.1432 71.9872 85.5467 63.5724 85.5467C55.1575 85.5467 48.3359 82.1432 48.3359 77.9448C48.3359 74.564 52.7594 71.6987 58.8762 70.7109" stroke="white" stroke-width="4"/>
<path d="M122 3.06625V108.491L82.6667 125.815L42.1395 107.965C41.6259 107.739 41.0408 107.739 40.5272 107.965L2 124.934V19.509L41.3333 2.18539L81.8605 20.0348C82.3742 20.261 82.9592 20.261 83.4728 20.0348L122 3.06625Z" stroke="white" stroke-width="4" stroke-linecap="round" stroke-linejoin="round"/>
</svg>
