<svg width="92" height="92" viewBox="0 0 92 92" fill="none" xmlns="http://www.w3.org/2000/svg">
<path d="M89.9818 59.4412C87.3238 68.1406 82.1458 75.8563 75.1025 81.6127C68.0593 87.3691 59.4672 90.9076 50.4128 91.7807C41.3585 92.6538 32.2486 90.8223 24.2352 86.5178C16.2218 82.2133 9.66478 75.6291 5.39345 67.598C1.12213 59.5668 -0.671699 50.4494 0.238831 41.3988C1.14936 32.3481 4.72335 23.7707 10.5088 16.7513C16.2943 9.73195 24.0314 4.58584 32.7416 1.96381C41.4519 -0.65823 50.744 -0.63842 59.443 2.02073C71.1067 5.58614 80.8765 13.6385 86.6035 24.4068C92.3306 35.175 93.5458 47.7771 89.9818 59.4412Z" fill="#E74318"/>
<path d="M25.4468 63.3494C25.4016 63.335 25.3625 63.3061 25.3354 63.2672C25.3083 63.2283 25.2949 63.1816 25.2971 63.1342C25.2945 63.0762 25.3145 63.0194 25.3528 62.9758C25.3912 62.9322 25.445 62.9052 25.5029 62.9004H65.5167C65.5458 62.9004 65.5745 62.9062 65.6013 62.9176C65.628 62.929 65.6521 62.9457 65.6722 62.9667C65.6923 62.9876 65.708 63.0125 65.7182 63.0397C65.7285 63.0669 65.7331 63.0958 65.7318 63.1249C65.7331 63.1544 65.7285 63.1838 65.7184 63.2115C65.7083 63.2392 65.6928 63.2647 65.6728 63.2864C65.6528 63.3081 65.6287 63.3257 65.6019 63.3381C65.5752 63.3505 65.5462 63.3575 65.5167 63.3587H25.4468V63.3494Z" fill="white"/>
<path d="M25.4518 28.0496C25.4037 28.0304 25.3634 27.9958 25.3371 27.9513C25.3109 27.9067 25.3001 27.8547 25.3065 27.8034C25.3129 27.7521 25.3362 27.7043 25.3726 27.6676C25.409 27.6309 25.4566 27.6074 25.5079 27.6006H65.5217C65.5812 27.6006 65.6383 27.6242 65.6804 27.6663C65.7225 27.7084 65.7462 27.7655 65.7462 27.8251C65.7462 27.8846 65.7225 27.9417 65.6804 27.9838C65.6383 28.0259 65.5812 28.0496 65.5217 28.0496H25.4518Z" fill="white"/>
<path d="M9.97143 27.899L12.7435 29.5053L13.0068 29.0509L10.6373 27.6779L11.5304 26.1366L13.8999 27.5096L14.1599 27.061L11.3878 25.4547L9.97143 27.899Z" fill="white"/>
<path d="M13.9621 22.8307C13.5805 22.502 13.2728 22.6974 13.027 23.145L13.3319 23.3788C13.5541 23.0141 13.7845 23.2564 14.106 23.5119L17.0561 25.8568L17.3775 25.4524L15.8636 24.2491C17.1738 23.8354 17.5197 22.3252 16.405 21.4391C15.6896 20.8704 14.7864 20.8039 14.2053 21.535C13.9209 21.8927 13.7691 22.2966 13.9621 22.8307ZM14.7147 23.3528C14.2967 22.9952 14.1324 22.3823 14.5116 21.9053C14.9567 21.3454 15.5776 21.4583 16.0754 21.8539C16.993 22.5833 16.5559 23.708 15.4872 23.9668L14.7147 23.3528Z" fill="white"/>
<path d="M20.5559 17.3519C19.0332 15.727 16.5693 18.0359 18.0919 19.6608C19.6146 21.2856 22.0694 18.967 20.5559 17.3519ZM18.4751 19.3017C17.3616 18.1134 19.064 16.5181 20.1775 17.7064C21.2956 18.8995 19.5932 20.4949 18.4751 19.3017Z" fill="white"/>
<path d="M23.0745 13.5552C22.5986 13.8941 22.3864 14.4378 22.4654 14.9003C22.1439 14.2749 22.2786 13.8175 22.6008 13.2459C22.8552 12.7861 23.5058 12.059 22.9184 11.5861L22.4987 11.8779C22.8582 12.1858 22.4387 12.5824 22.1877 13.0237C21.5483 14.1392 21.8211 15.0085 22.6837 15.9935C23.2108 16.5891 24.0149 16.8386 24.8597 16.2513C25.7481 15.6338 25.7421 14.6598 25.2815 13.9856C24.7847 13.2476 23.8644 12.9819 23.0745 13.5552ZM22.983 15.5752C22.6551 15.0918 22.6873 14.3822 23.2814 13.9692C23.8701 13.56 24.5057 13.7649 24.8597 14.2626C25.2327 14.7875 25.1869 15.466 24.5983 15.8752C24.0478 16.2579 23.3847 16.1529 22.983 15.5752Z" fill="white"/>
<path d="M29.4371 10.0149C29.4282 9.99707 29.4192 9.97924 29.4133 9.96736L28.9438 10.2026L29.1635 13.0145L29.1576 13.0175L26.9472 11.2034L26.448 11.4535C26.454 11.4654 26.4629 11.4833 26.4719 11.5011L29.2058 13.6774L29.2419 14.1649C29.296 14.7475 29.237 15.1934 28.5682 15.2238L28.6785 15.6071C29.814 15.5585 29.7536 14.5924 29.6873 13.6591L29.4371 10.0149Z" fill="white"/>
<path d="M32.1022 7.52617C32.3272 8.01166 32.8212 8.1902 33.3005 8.03033C33.8049 7.86204 34.0633 7.41845 33.956 6.9077C33.8509 6.92875 33.7122 6.95401 33.6092 6.98136C33.6555 7.30926 33.4622 7.54893 33.1658 7.6478C32.8422 7.74878 32.5731 7.65637 32.4301 7.37474L32.1022 7.52617ZM33.1754 11.94L33.0303 11.9884L32.0164 8.94922L32.4956 8.78935L32.8553 9.86756L33.1688 10.9332L34.5238 8.10568L34.6878 8.05098L35.7038 11.0965L35.2246 11.2563L34.8859 10.2412L34.5514 9.07047L33.1754 11.94Z" fill="white"/>
<path d="M39.5306 10.283L39.0377 7.59916L40.1451 7.39576L40.0625 6.94629L37.3527 7.44402L37.4352 7.89349L38.5426 7.69009L39.0356 10.3739L39.5306 10.283Z" fill="white"/>
<path d="M44.269 6.46545C43.3915 6.50932 42.6893 7.12417 42.7066 8.13617C42.7278 9.22794 43.5125 9.86173 44.576 9.80856C44.9682 9.78895 45.369 9.67562 45.7389 9.4772L45.6396 9.08902C45.275 9.26051 44.9333 9.35756 44.5677 9.37584C43.8432 9.41206 43.2357 8.98931 43.232 8.24983L45.7778 8.12254C45.9044 7.0567 45.3594 6.41759 44.269 6.46545ZM44.2896 6.87756C44.8612 6.84898 45.3222 7.13912 45.3192 7.74566L43.232 7.85002C43.2895 7.26741 43.7046 6.90681 44.2896 6.87756Z" fill="white"/>
<path d="M54.9437 8.30454C55.0843 7.54642 54.3383 7.34042 53.7697 7.23494L52.6195 7.02155C52.4219 8.08683 52.2267 9.13904 52.0327 10.1847L53.3267 10.4248C53.9476 10.54 54.7084 10.5932 54.8563 9.7959C54.9303 9.39724 54.7389 9.04399 54.3519 8.87079C54.6956 8.83992 54.8915 8.58556 54.9437 8.30454ZM52.6082 9.85206L52.7997 8.81945L53.499 8.94919C53.8977 9.02315 54.4525 9.16663 54.3603 9.66333C54.2658 10.1731 53.7453 10.063 53.3598 9.99149L52.6082 9.85206ZM52.8725 8.42732L53.0422 7.51236L53.7219 7.63845C54.0683 7.70271 54.5132 7.81905 54.4332 8.25039C54.3531 8.68173 53.8986 8.61768 53.5522 8.55342L52.8725 8.42732Z" fill="white"/>
<path d="M58.1673 9.76735L58.5985 8.47475L58.1004 8.30857L57.0843 11.354L57.5824 11.5202L58.0326 10.1709L58.4299 10.3034C58.556 10.3455 58.6905 10.3834 58.8124 10.396L59.2723 12.084L59.8019 12.2607L59.8209 12.204L59.2979 10.3898C60.0442 10.3585 60.4521 9.84993 60.6666 9.16474L60.2001 9.00907C59.9245 9.83507 59.3905 10.1755 58.5708 9.90198L58.1673 9.76735Z" fill="white"/>
<path d="M66.0038 11.7242C66.0127 11.7064 66.0216 11.6885 66.0275 11.6766L65.5576 11.4424L63.4405 13.3061L63.4346 13.3031L63.5586 10.4462L63.0589 10.1972C63.053 10.2091 63.0441 10.2269 63.0352 10.2448L62.9357 13.7378L62.5675 14.0593C62.1341 14.4522 61.742 14.6727 61.3162 14.1561L61.0758 14.4744C61.7964 15.3534 62.5327 14.7252 63.2394 14.1119L66.0038 11.7242Z" fill="white"/>
<path d="M70.2237 15.5845C70.4541 14.8961 70.1326 14.2484 69.5992 13.8745C68.9123 13.3952 67.8839 13.3668 67.2522 14.2877C66.6281 15.1975 67.01 16.1447 67.7007 16.6185C68.2543 16.9983 69.013 17.0674 69.6006 16.5515L69.184 16.2658C68.7858 16.5407 68.3164 16.4847 67.9656 16.2441C67.4887 15.9169 67.2378 15.237 67.6853 14.5847C68.1365 13.927 68.8701 13.9385 69.3525 14.2694C69.6868 14.4988 69.8957 14.8758 69.8126 15.3025L70.2237 15.5845Z" fill="white"/>
<path d="M74.6989 18.2031L73.8031 19.1763L72.468 17.9473L73.3638 16.9741L72.9872 16.6275L70.8174 18.9847L71.194 19.3313L72.1618 18.2799L73.4969 19.5089L72.5291 20.5603L72.9007 20.9025L75.0706 18.5453L74.6989 18.2031Z" fill="white"/>
<path d="M77.9233 24.3056C79.6528 22.9031 77.526 20.2804 75.7964 21.6829C74.0669 23.0855 76.2041 25.6998 77.9233 24.3056ZM76.1272 22.0908C77.3921 21.065 78.8616 22.8772 77.5967 23.9029C76.3267 24.9328 74.8572 23.1207 76.1272 22.0908Z" fill="white"/>
<path d="M81.5308 26.8759C81.0811 26.1224 80.2098 25.791 79.3252 26.2802C78.3721 26.8104 78.1806 27.7994 78.7256 28.7126C78.9266 29.0494 79.2143 29.3499 79.5626 29.5832L79.8585 29.3137C79.5364 29.0725 79.2908 28.8165 79.1034 28.5026C78.7321 27.8805 78.8205 27.1465 79.4711 26.797L80.7758 28.983C81.7753 28.5955 82.0837 27.8153 81.5308 26.8759ZM81.1769 27.0871C81.4699 27.5779 81.4298 28.1205 80.8934 28.4019L79.8238 26.6097C80.3646 26.3875 80.8771 26.5848 81.1769 27.0871Z" fill="white"/>
<path d="M12.061 58.2885C12.7968 58.058 12.6298 57.3024 12.457 56.7505L12.1073 55.6341C11.0734 55.9579 10.0521 56.2778 9.03724 56.5956L9.43059 57.8516C9.61932 58.4542 9.92825 59.1515 10.7021 58.9091C11.0891 58.7879 11.3117 58.4535 11.2837 58.0304C11.4718 58.3198 11.7883 58.3739 12.061 58.2885ZM9.60053 56.9486L10.6028 56.6347L10.8153 57.3134C10.9365 57.7003 11.0693 58.2578 10.5872 58.4088C10.0924 58.5637 9.9462 58.0523 9.82899 57.678L9.60053 56.9486ZM10.9833 56.5155L11.8714 56.2374L12.078 56.8971C12.1833 57.2332 12.2886 57.6809 11.87 57.812C11.4513 57.9431 11.2952 57.5114 11.19 57.1752L10.9833 56.5155Z" fill="white"/>
<path d="M11.4913 62.9355C11.8026 63.5602 12.3578 64.0633 13.0836 63.7016C13.8094 63.3399 13.733 62.6056 13.4188 61.9749L13.0867 61.3086L14.0267 60.8402L13.8013 60.3881L10.9339 61.8171L11.4913 62.9355ZM13.0529 62.1498C13.2516 62.5484 13.2925 63.033 12.8582 63.2495C12.418 63.4689 12.0558 63.1592 11.8512 62.7487L11.5221 62.0884L12.7238 61.4895L13.0529 62.1498ZM12.3985 64.756L12.6179 65.1962L15.4854 63.7672L15.266 63.3269L12.3985 64.756Z" fill="white"/>
<path d="M17.7073 67.0285C17.3591 66.5585 16.8108 66.3562 16.3492 66.444C16.9693 66.1103 17.4298 66.2366 18.0081 66.5484C18.4732 66.7944 19.2134 67.4321 19.6758 66.8352L19.3758 66.4205C19.0743 66.7862 18.6693 66.3737 18.2227 66.1306C17.094 65.5115 16.2287 65.801 15.2588 66.6831C14.6725 67.2221 14.4378 68.0317 15.0416 68.8665C15.6766 69.7444 16.6516 69.72 17.3179 69.2462C18.0474 68.7349 18.2961 67.8085 17.7073 67.0285ZM15.6832 66.9749C16.1611 66.6375 16.8721 66.6564 17.2967 67.2435C17.7175 67.8251 17.5242 68.4653 17.0326 68.8291C16.5141 69.2124 15.8339 69.1793 15.4132 68.5977C15.0197 68.0537 15.1123 67.3879 15.6832 66.9749Z" fill="white"/>
<path d="M21.1982 72.315L20.2949 73.1314L19.533 73.883L19.8878 74.2426L22.1733 71.988L22.052 71.8649L18.9167 71.8953L19.735 71.1441L20.5441 70.3459L20.1894 69.9863L17.9085 72.2363L18.0159 72.3451L21.1982 72.315Z" fill="white"/>
<path d="M24.2563 74.3911C24.5753 73.999 24.3706 73.6959 23.9146 73.4619L23.6886 73.7743C24.0608 73.987 23.8242 74.225 23.5769 74.5547L21.3077 77.5804L21.7224 77.8915L22.887 76.3387C23.339 77.6415 24.8638 77.946 25.7213 76.8027C26.2716 76.0688 26.3128 75.1609 25.5631 74.5985C25.1962 74.3233 24.7867 74.1824 24.2563 74.3911ZM23.7538 75.1609C24.1007 74.7315 24.7109 74.5493 25.2001 74.9163C25.7744 75.347 25.6787 75.9731 25.2959 76.4836C24.5899 77.4248 23.4493 77.018 23.1595 75.9532L23.7538 75.1609Z" fill="white"/>
<path d="M29.3222 80.0028C29.0479 80.5194 29.2243 80.7259 29.7345 80.8989L29.8876 80.5964C29.5162 80.4595 29.6305 80.2868 29.7956 79.9756L30.422 78.7955C30.8323 78.0651 30.3468 77.4913 29.7068 77.1516C29.3311 76.9522 28.9117 76.8349 28.5609 76.8293L28.4503 77.2221C28.7658 77.209 29.1171 77.3127 29.44 77.4841C29.8275 77.6898 30.2639 78.087 30.0114 78.5625L29.8276 78.9089C29.6299 78.6008 29.3005 78.3281 28.9776 78.1567C28.3905 77.8451 27.6845 77.8993 27.3593 78.5544C27.0746 79.1333 27.3881 79.691 27.9106 79.9684C28.3392 80.1959 28.9079 80.2871 29.3222 80.0028ZM29.4945 79.5223C29.1761 79.8951 28.5715 79.815 28.2016 79.6187C27.8846 79.4504 27.6482 79.1443 27.8207 78.7768C28.0181 78.3623 28.4912 78.3501 28.8669 78.5495C29.1546 78.7022 29.4574 78.9683 29.6378 79.2522L29.4945 79.5223Z" fill="white"/>
<path d="M34.243 77.8043C34.1229 78.3258 34.4036 78.7698 34.8802 78.9374C35.3818 79.1139 35.858 78.922 36.0865 78.4528C35.9905 78.405 35.8655 78.3398 35.7674 78.2983C35.6028 78.5857 35.3032 78.6564 35.0085 78.5527C34.6909 78.434 34.535 78.196 34.5948 77.8858L34.243 77.8043ZM32.3835 81.9487L32.2393 81.898L33.3024 78.8757L33.779 79.0433L33.4018 80.1155L32.9958 81.1495L35.8002 79.7473L35.9632 79.8046L34.8979 82.8332L34.4214 82.6656L34.7765 81.656L35.2303 80.5262L32.3835 81.9487Z" fill="white"/>
<path d="M39.0565 83.7923L39.5856 81.1053L40.6943 81.3236L40.7829 80.8736L38.0699 80.3394L37.9813 80.7894L39.09 81.0077L38.5609 83.6947L39.0565 83.7923Z" fill="white"/>
<path d="M44.461 81.1147C43.5851 81.063 42.8211 81.5972 42.7283 82.6038C42.6309 83.6901 43.3411 84.4045 44.4028 84.4672C44.7943 84.4904 45.2045 84.4214 45.5933 84.2645L45.5368 83.8683C45.1562 83.999 44.8065 84.0583 44.4415 84.0367C43.7183 83.994 43.161 83.5083 43.2377 82.7737L45.7791 82.9238C46.0205 81.8794 45.5488 81.1856 44.461 81.1147ZM44.4367 81.5261C45.0073 81.5598 45.4335 81.898 45.3646 82.4998L43.2811 82.3768C43.4015 81.8046 43.8527 81.4916 44.4367 81.5261Z" fill="white"/>
<path d="M51.9059 80.7473L52.5337 83.889L53.0486 83.7862L52.512 81.1007L54.2589 80.7516L54.7955 83.4371L55.3039 83.3355L54.6761 80.1938L51.9059 80.7473Z" fill="white"/>
<path d="M60.6051 79.8883C59.848 77.7952 56.6739 78.9432 57.431 81.0364C58.1881 83.1295 61.3577 81.9689 60.6051 79.8883ZM57.9246 80.8578C57.3709 79.327 59.564 78.5338 60.1177 80.0646C60.6737 81.6016 58.4806 82.3949 57.9246 80.8578Z" fill="white"/>
<path d="M64.3292 76.6521L65.6515 79.0503L66.0997 78.8032L64.5528 75.9975C63.8834 76.3666 63.2256 76.7293 62.5562 77.0983L63.3646 79.074C63.5562 79.5452 63.6327 79.8218 63.0697 80.0259L63.2475 80.3758C64.1207 80.0461 64.171 79.6692 63.8199 78.8533L63.1709 77.2908L64.3292 76.6521Z" fill="white"/>
<path d="M67.7214 73.6413C67.025 74.175 66.7963 75.0787 67.3844 75.9009C68.0211 76.7864 69.0256 76.8625 69.8698 76.2156C70.1811 75.9771 70.4463 75.6567 70.6379 75.2838L70.3361 75.021C70.1336 75.3687 69.9078 75.6423 69.6176 75.8646C69.0424 76.3053 68.3032 76.3022 67.8809 75.6964L69.9017 74.148C69.4013 73.1999 68.5908 72.9836 67.7214 73.6413ZM67.9721 73.9684C68.4258 73.6208 68.9694 73.5979 69.3109 74.0982L67.6541 75.3677C67.371 74.8561 67.5078 74.3242 67.9721 73.9684Z" fill="white"/>
<path d="M70.978 71.7359C71.0556 71.4401 71.306 71.0634 71.52 70.8463C71.7806 70.582 72.1211 70.35 72.4137 70.6385C72.7251 70.9456 72.4416 71.2709 72.1857 71.5399C72.088 71.639 71.9903 71.7287 71.9018 71.8184L72.1944 72.1069C72.2875 72.0125 72.3899 71.9086 72.4922 71.8048C72.7993 71.4933 73.214 71.1483 73.5538 71.4833C73.8511 71.7764 73.6431 72.1856 73.3361 72.5065C73.0336 72.8132 72.5388 73.0886 72.2157 73.1143L72.5227 73.4542C72.8924 73.3813 73.3545 73.1203 73.7035 72.7663C74.1734 72.2896 74.4498 71.6128 73.9495 71.1196C73.6428 70.8172 73.2491 70.82 72.8853 71.0569C73.0568 70.7886 72.9793 70.4329 72.7527 70.2096C72.2855 69.749 71.6973 70.0624 71.2785 70.4872C70.9946 70.7657 70.7536 71.1517 70.6668 71.4663L70.978 71.7359Z" fill="white"/>
<path d="M75.2077 65.7436L76.2751 66.5248L75.2034 67.9891L74.136 67.2079L73.8337 67.6209L76.4191 69.5131L76.7214 69.1001L75.5681 68.2561L76.6399 66.7918L77.7931 67.6358L78.0915 67.2281L75.5061 65.3359L75.2077 65.7436Z" fill="white"/>
<path d="M79.6581 61.0754C77.6763 60.0511 76.123 63.0563 78.1048 64.0806C80.0866 65.1049 81.628 62.0936 79.6581 61.0754ZM78.3463 63.6133C76.897 62.8641 77.9702 60.7877 79.4196 61.5368C80.8749 62.289 79.8016 64.3654 78.3463 63.6133Z" fill="white"/>
<path d="M79.4676 56.8186C79.1873 57.6501 79.5017 58.5277 80.4485 58.8819C81.4709 59.2616 82.347 58.7644 82.6868 57.7566C82.812 57.3849 82.8534 56.971 82.8044 56.5546L82.4073 56.5049C82.4332 56.9065 82.3984 57.2595 82.2816 57.6059C82.0501 58.2925 81.435 58.7024 80.7464 58.4352L81.5597 56.0228C80.6155 55.5151 79.8222 55.7878 79.4676 56.8186ZM79.8581 56.9503C80.0408 56.4086 80.4791 56.0864 81.0416 56.3111L80.3749 58.2889C79.8545 58.0223 79.6713 57.5046 79.8581 56.9503Z" fill="white"/>
<path d="M8.97286 44.7026C9.48427 44.7026 9.89885 44.288 9.89885 43.7766C9.89885 43.2652 9.48427 42.8506 8.97286 42.8506C8.46145 42.8506 8.04688 43.2652 8.04688 43.7766C8.04688 44.288 8.46145 44.7026 8.97286 44.7026Z" fill="white"/>
<path d="M83.9924 44.7026C84.5038 44.7026 84.9184 44.288 84.9184 43.7766C84.9184 43.2652 84.5038 42.8506 83.9924 42.8506C83.481 42.8506 83.0664 43.2652 83.0664 43.7766C83.0664 44.288 83.481 44.7026 83.9924 44.7026Z" fill="white"/>
<path opacity="0.9" d="M28.8763 38.48C28.8763 38.088 28.8763 37.792 28.8763 37.4C27.7563 37.4 26.5883 37.4 25.4683 37.4C25.4683 39.264 25.4683 41.136 25.4683 43C25.8683 43 26.2683 43 26.6603 43C26.6603 41.48 26.6603 40 26.6603 38.48H28.8763ZM34.9544 40.2C34.9544 38.32 33.5704 37.312 32.1064 37.312C30.6184 37.312 29.2344 38.312 29.2344 40.2C29.2344 42.088 30.5864 43.096 32.0824 43.096C33.7784 43.096 34.9544 41.904 34.9544 40.2ZM30.4424 40.2C30.4424 39.016 31.2264 38.416 32.1064 38.416C32.9784 38.416 33.7624 39.008 33.7624 40.2C33.7624 41.424 32.9704 42 32.0984 42C31.2024 42 30.4424 41.424 30.4424 40.2ZM36.8041 38.44V43H37.9641V38.44H39.4521V37.4H35.3081V38.44H36.8041ZM45.5326 40.2C45.5326 38.32 44.1486 37.312 42.6846 37.312C41.1966 37.312 39.8126 38.312 39.8126 40.2C39.8126 42.088 41.1646 43.096 42.6606 43.096C44.3566 43.096 45.5326 41.904 45.5326 40.2ZM41.0206 40.2C41.0206 39.016 41.8046 38.416 42.6846 38.416C43.5566 38.416 44.3406 39.008 44.3406 40.2C44.3406 41.424 43.5486 42 42.6766 42C41.7806 42 41.0206 41.424 41.0206 40.2ZM50.6592 39.064C50.6592 38.016 49.9232 37.408 48.8992 37.408H46.5232V43H49.1232C50.2432 43 50.8992 42.328 50.8992 41.344C50.8992 40.768 50.6192 40.312 50.0992 40.096C50.4512 39.88 50.6592 39.472 50.6592 39.064ZM48.8112 38.432C49.2272 38.432 49.4912 38.696 49.4832 39.104C49.4752 39.48 49.2192 39.704 48.8112 39.704H47.7152V38.432H48.8112ZM48.9872 40.68C49.1712 40.68 49.3312 40.696 49.4672 40.792C49.6352 40.912 49.7232 41.12 49.7152 41.344C49.6912 41.72 49.4512 41.96 49.0432 41.96H47.7152V40.68H48.9872ZM57.2982 40.2C57.2982 38.32 55.9142 37.312 54.4502 37.312C52.9622 37.312 51.5782 38.312 51.5782 40.2C51.5782 42.088 52.9302 43.096 54.4262 43.096C56.1222 43.096 57.2982 41.904 57.2982 40.2ZM52.7862 40.2C52.7862 39.016 53.5702 38.416 54.4502 38.416C55.3222 38.416 56.1062 39.008 56.1062 40.2C56.1062 41.424 55.3142 42 54.4422 42C53.5462 42 52.7862 41.424 52.7862 40.2ZM61.4338 37.4H60.2418V43H61.4338V40.752C61.6818 40.752 62.0978 40.752 62.3138 40.696L63.7218 43H65.0738V42.824L63.3618 40.232C63.7057 39.888 63.8978 39.384 64.0658 38.744C64.1858 38.32 64.4258 38.184 64.8738 38.224V37.408C63.6418 37.152 63.1538 37.696 62.9618 38.392C62.8098 39.024 62.6978 39.448 62.4018 39.608C62.1778 39.72 61.7778 39.712 61.4338 39.712V37.4ZM13.9363 50.592C13.6723 51.16 13.3283 51.248 12.7763 51.016L12.6163 51.992C14.0163 52.52 14.6163 51.928 15.1283 50.792L17.2403 46.52V46.4H15.9683L14.8323 48.872H14.7923L13.5203 46.4H12.2003V46.552L14.1763 50.088L13.9363 50.592ZM17.8863 46.4V52C18.2863 52 18.6863 52 19.0863 52V47.488H21.2223V52C21.6223 52 22.0223 52 22.4223 52V46.4H17.8863ZM29.1224 49.2C29.1224 47.32 27.7384 46.312 26.2744 46.312C24.7864 46.312 23.4024 47.312 23.4024 49.2C23.4024 51.088 24.7544 52.096 26.2504 52.096C27.9464 52.096 29.1224 50.904 29.1224 49.2ZM24.6104 49.2C24.6104 48.016 25.3944 47.416 26.2744 47.416C27.1464 47.416 27.9304 48.008 27.9304 49.2C27.9304 50.424 27.1384 51 26.2664 51C25.3704 51 24.6104 50.424 24.6104 49.2ZM30.972 47.44V52H32.132V47.44H33.62V46.4H29.476V47.44H30.972ZM35.6177 51.992V50.408H36.8097C38.0897 50.408 38.8017 49.472 38.8017 48.432C38.8017 47.376 38.1137 46.392 36.8097 46.392C36.0097 46.392 35.2177 46.384 34.4177 46.392V51.992H35.6177ZM35.5937 49.384V47.44C36.0017 47.44 36.4017 47.432 36.8097 47.44C37.3377 47.44 37.6577 47.88 37.6577 48.4C37.6577 48.936 37.3217 49.384 36.8097 49.384H35.5937ZM43.0839 46.4H39.6519V52H43.1479V50.912H40.8599V49.632H42.9399V48.584H40.8599V47.448H43.0839V46.4ZM46.614 49.48C47.158 49.48 47.438 49.816 47.438 50.208C47.438 50.592 47.166 50.952 46.614 50.952C46.222 50.952 45.798 50.952 45.406 50.952V49.48H46.614ZM45.406 47.448H48.15V46.4H44.23C44.23 48.264 44.23 50.136 44.23 52C45.022 52 45.822 52 46.622 52C47.942 52 48.606 51.184 48.606 50.2C48.606 49.232 47.958 48.48 46.622 48.48H45.406V47.448ZM51.3669 47.472H52.8949V52H54.0869V46.4C52.9429 46.4 51.4789 46.4 50.3189 46.4L49.9029 50.352C49.8309 50.968 49.6949 51.184 49.0229 51.112L48.9989 51.976C50.4709 52.184 50.9589 51.848 51.0949 50.392L51.3669 47.472ZM58.8183 46.4H55.3863V52H58.8823V50.912H56.5943V49.632H58.6743V48.584H56.5943V47.448H58.8183V46.4ZM64.5004 52V46.4H63.3004V48.536H61.1564V46.4H59.9644V52H61.1564V49.632H63.3004V52H64.5004ZM69.3205 48.8V52H70.5125V46.376H70.1365L66.9925 49.576V46.4H65.7925V52.016H66.1525L69.3205 48.8ZM79.5122 49.2C79.5122 47.328 78.1442 46.312 76.6722 46.304C75.3602 46.296 74.1362 47.088 73.8642 48.568H73.0082V46.4H71.8082V52H73.0082V49.656H73.8402C74.0322 51.232 75.2882 52.096 76.6482 52.112C78.1282 52.12 79.5122 51.096 79.5122 49.2ZM75.0002 49.2C75.0002 48.08 75.7602 47.448 76.6482 47.448C77.5282 47.448 78.3122 48.072 78.3122 49.2C78.3122 50.344 77.5362 50.976 76.6642 50.976C75.7762 50.976 75.0002 50.344 75.0002 49.2Z" fill="white"/>
</svg>
