<svg width="329" height="329" viewBox="0 0 329 329" fill="none" xmlns="http://www.w3.org/2000/svg">
<path d="M21.3224 329.263C15.8659 329.263 10.4055 327.175 6.25269 323.018C-2.08423 314.685 -2.08423 301.212 6.25269 292.879L292.608 6.5193C300.941 -1.81372 314.415 -1.81372 322.748 6.5193C331.084 14.8523 331.084 28.3257 322.748 36.6587L36.3921 323.018C32.2119 327.194 26.7789 329.263 21.3224 329.263Z" fill="#F44336"/>
<path d="M307.678 329.263C302.221 329.263 296.765 327.175 292.608 323.018L6.25269 36.6587C-2.08423 28.3257 -2.08423 14.8523 6.25269 6.5193C14.5857 -1.81372 28.0552 -1.81372 36.3921 6.5193L322.748 292.879C331.084 301.212 331.084 314.685 322.748 323.018C318.591 327.194 313.134 329.263 307.678 329.263V329.263Z" fill="#F44336"/>
</svg>
