<svg width="128" height="128" viewBox="0 0 128 128" fill="none" xmlns="http://www.w3.org/2000/svg">
<path d="M10 32.7754L52.5007 21.3874C75.9732 15.0979 100.1 29.0275 106.39 52.5001C112.679 75.9726 98.7493 100.099 75.2768 106.389L32.7761 117.777L10 32.7754Z" fill="#B8D8D8"/>
<path d="M20 69H36.5C36.5 69 32.5 59.5 42.5 59.5C52.5 59.5 48 69 48 69H63H80C80 69 74.5 79.5 85.5 79.5C96.5 79.5 91 69 91 69H106" stroke="#1C2545" stroke-width="2"/>
<path d="M63.5 26L63.5 42.5C63.5 42.5 73 38.5 73 48.5C73 58.5 63.5 54 63.5 54L63.5 69L63.5 86C63.5 86 53 80.5 53 91.5C53 102.5 63.5 97 63.5 97L63.5 112" stroke="#1C2545" stroke-width="2"/>
<path d="M21 26H64C87.7482 26 107 45.2518 107 69C107 92.7482 87.7482 112 64 112H21V26Z" stroke="#1C2545" stroke-width="2"/>
</svg>
