<svg width="128" height="128" viewBox="0 0 128 128" fill="none" xmlns="http://www.w3.org/2000/svg">
<path d="M117.754 32.75L75.2532 21.362C51.7807 15.0725 27.6538 29.0022 21.3644 52.4747C15.075 75.9472 29.0046 100.074 52.4771 106.363L94.9778 117.751L117.754 32.75Z" fill="#EBCAAD"/>
<path d="M34.7695 69.6048C63.3578 50.713 98.5877 50.4312 111.871 69.6048" stroke="#1C2545" stroke-width="2" stroke-linecap="round" stroke-linejoin="round"/>
<path d="M34.4805 69.8874C63.0687 88.7792 98.2986 89.061 111.582 69.8874" stroke="#1C2545" stroke-width="2" stroke-linecap="round" stroke-linejoin="round"/>
<path d="M34.3925 69.8563C24.7801 68.0473 17.6579 61.206 18.9319 54.7605" stroke="#1C2545" stroke-width="2" stroke-linecap="round" stroke-linejoin="round"/>
<path d="M34.5079 69.8546C32.6551 60.469 25.6485 53.5148 19.0473 54.7588" stroke="#1C2545" stroke-width="2" stroke-linecap="round" stroke-linejoin="round"/>
<path d="M34.3925 69.9815C24.7801 71.7906 17.6579 78.6318 18.9319 85.0774" stroke="#1C2545" stroke-width="2" stroke-linecap="round" stroke-linejoin="round"/>
<path d="M34.5079 69.9833C32.6551 79.3689 25.6485 86.3231 19.0473 85.0791" stroke="#1C2545" stroke-width="2" stroke-linecap="round" stroke-linejoin="round"/>
<path d="M96.2769 58.043C83.5712 58.043 83.8596 81.4453 96.2769 81.4453" stroke="#1C2545" stroke-width="2"/>
<path d="M77.4344 59.7344C73.6436 59.7344 72.9661 66.4033 77.4344 66.4033" stroke="#1C2545" stroke-width="2" stroke-linecap="round" stroke-linejoin="round"/>
<path d="M77.4344 66.502C73.6436 66.502 72.9661 73.1708 77.4344 73.1708" stroke="#1C2545" stroke-width="2" stroke-linecap="round" stroke-linejoin="round"/>
<path d="M68.1922 63.1172C64.4014 63.1172 63.7239 69.7861 68.1922 69.7861" stroke="#1C2545" stroke-width="2" stroke-linecap="round" stroke-linejoin="round"/>
<path d="M77.4344 73.2695C73.6436 73.2695 72.9661 79.9384 77.4344 79.9384" stroke="#1C2545" stroke-width="2" stroke-linecap="round" stroke-linejoin="round"/>
<path d="M68.1922 69.8848C64.4014 69.8848 63.7239 76.5536 68.1922 76.5536" stroke="#1C2545" stroke-width="2" stroke-linecap="round" stroke-linejoin="round"/>
<path d="M100.846 67.2461C100.846 68.3283 99.9409 69.2461 98.7737 69.2461C97.6064 69.2461 96.7012 68.3283 96.7012 67.2461C96.7012 66.1639 97.6064 65.2461 98.7737 65.2461C99.9409 65.2461 100.846 66.1639 100.846 67.2461Z" stroke="#1C2545" stroke-width="2"/>
<path d="M100.546 59.326C102.791 55.4341 105.798 52.9718 111.555 46.998C106.556 47.5985 104.667 47.9801 101.435 49.7993C101.698 46.9711 100.611 44.9935 99.634 41.125C96.4701 43.9581 95.5375 45.6478 94.6337 48.1031C93.891 45.2002 90.5385 43.282 86.9805 40C88.3912 46.6373 89.3408 50.5649 88.463 55.1953" stroke="#1C2545" stroke-width="2" stroke-linecap="round" stroke-linejoin="round"/>
</svg>
