<svg width="128" height="128" viewBox="0 0 128 128" fill="none" xmlns="http://www.w3.org/2000/svg">
<path d="M117.777 32.7754L75.2766 21.3874C51.8041 15.0979 27.6773 29.0275 21.3878 52.5001C15.0984 75.9726 29.028 100.099 52.5005 106.389L95.0013 117.777L117.777 32.7754Z" fill="#EBCAAD"/>
<path d="M55.9365 91.529C56.0029 72.5926 44.4053 71.5045 40.2653 62.6258C30.2685 41.1869 44.2559 17 68.2 17C92.1441 17 106.131 41.1869 96.1348 62.6258C91.9947 71.5045 80.3971 72.5926 80.4636 91.529M55.9365 91.529C55.9349 91.9667 55.9271 92.4139 55.9129 92.871C55.6181 102.337 55.7776 104.508 61.4886 105.007M55.9365 91.529H80.4636M80.4636 91.529C80.4651 91.9667 80.4729 92.4139 80.4871 92.871C80.7819 102.337 80.6224 104.508 74.9114 105.007M74.9114 105.007C73.2112 105.155 71.0189 105.155 68.2 105.155C65.3811 105.155 63.1888 105.155 61.4886 105.007M74.9114 105.007C74.9114 113 75.5416 113 68.2 113C60.8584 113 61.4886 113 61.4886 105.007" stroke="#1C2545" stroke-width="2" stroke-linecap="round" stroke-linejoin="round"/>
<path d="M79.4069 47.6667C79.4069 53.7256 74.405 58.6667 68.1986 58.6667C61.9921 58.6667 56.9902 53.7256 56.9902 47.6667C56.9902 44.6801 58.528 41.5633 60.8603 38.4473C62.9832 35.6109 65.6715 32.8942 68.1984 30.4031C70.4479 32.6229 73.1085 35.3192 75.2852 38.2008C77.7148 41.4174 79.4069 44.6943 79.4069 47.6667Z" stroke="#1C2545" stroke-width="2"/>
<path d="M68.1992 41.9336V50.6008M68.1992 66.3336V50.6008M68.1992 50.6008L72.9998 45.8008" stroke="#1C2545" stroke-width="2" stroke-linecap="round"/>
</svg>
