<svg width="128" height="128" viewBox="0 0 128 128" fill="none" xmlns="http://www.w3.org/2000/svg">
<path d="M33.7754 12.002L76.2761 23.39C99.7486 29.6794 113.678 53.8063 107.389 77.2788V77.2788C101.099 100.751 76.9726 114.681 53.5001 108.391L10.9993 97.0034L33.7754 12.002Z" fill="#B6C0E2"/>
<path d="M90.0839 101.002V90.4887C116.819 63.7281 107.383 63.7281 107.383 33.7821C107.383 28.0477 98.2617 30.9145 98.2617 36.6493V48.4071M69.9539 101.002C69.6835 79.3279 70.7525 69.3832 79.7044 64.3652C84.3047 61.941 88.1131 59.8266 91.6566 52.8964C96.2174 43.9762 107.383 49.392 99.8344 59.5866L87.2531 76.4712" stroke="#1C2545" stroke-width="2" stroke-linecap="round" stroke-linejoin="round"/>
<path d="M37.9141 100.94V90.4262C11.179 63.6656 20.6149 63.6656 20.6149 33.7196C20.6149 27.9852 29.7363 30.852 29.7363 36.5868V48.3446M58.0442 100.94C58.3146 79.2654 57.2456 69.3207 48.2937 64.3027C43.6933 61.8785 39.8849 59.7641 36.3415 52.8339C31.7806 43.9137 20.6149 49.3295 28.1637 59.5241L40.7449 76.4087" stroke="#1C2545" stroke-width="2" stroke-linecap="round" stroke-linejoin="round"/>
<path d="M80.4733 51.2313V43.6653C80.4733 39.7423 75.5736 36.7466 68.1437 34.9785L64.0007 41L60.5777 34.9785C53.5063 36.3268 48.248 38.9016 48.248 43.6653V51.2313" stroke="#1C2545" stroke-width="2" stroke-linecap="round" stroke-linejoin="round"/>
<path d="M61.1593 21.8654C60.4217 22.2346 59.5792 22.494 58.4961 22.5406V20.7253C58.4961 17.5633 61.0594 15 64.2214 15C67.3834 15 69.9466 17.5633 69.9466 20.7253V21.3688C67.1648 19.9604 63.9462 20.4705 61.1593 21.8654ZM69.9466 23.7216V26.3297C69.9466 29.4917 67.3834 32.0549 64.2214 32.0549C61.0594 32.0549 58.4961 29.4917 58.4961 26.3297V24.542C59.8996 24.4937 61.0435 24.1599 62.0545 23.6539C64.8812 22.2391 67.747 22.0561 69.9466 23.7216Z" stroke="#1C2545" stroke-width="2"/>
<path d="M61.5012 31.5L60.5781 34.9786" stroke="#1C2545" stroke-width="2"/>
<path d="M67.0017 31.5L68.1445 35.2579" stroke="#1C2545" stroke-width="2"/>
<path d="M39 43.385V38.1969C39 34.9303 42.6057 33.1648 47.4546 32.2402H49.9286H52.6427C55.427 32.9028 57.6931 33.8168 59.1758 34.9485" stroke="#1C2545" stroke-width="2" stroke-linecap="round" stroke-linejoin="round"/>
<path d="M47.5353 24.9581C47.1449 25.1535 46.7065 25.3021 46.1641 25.3629V24.4573C46.1641 22.4627 47.781 20.8457 49.7757 20.8457C51.7551 20.8457 53.3625 22.438 53.387 24.4116C51.4771 23.6528 49.3521 24.0488 47.5353 24.9581ZM53.3873 26.6723V28.3003C53.3873 30.295 51.7703 31.912 49.7757 31.912C47.781 31.912 46.1641 30.295 46.1641 28.3003V27.3716C47.0365 27.3035 47.7717 27.0763 48.4305 26.7466C50.2537 25.834 52.0241 25.7257 53.3873 26.6723Z" stroke="#1C2545" stroke-width="2"/>
<path d="M90 43.385V38.1969C90 34.9303 86.3943 33.1648 81.5454 32.2402H79.0714H76.3573C73.573 32.9028 71.3069 33.8168 69.8242 34.9485" stroke="#1C2545" stroke-width="2" stroke-linecap="round" stroke-linejoin="round"/>
<path d="M81.4647 24.9581C81.8551 25.1535 82.2935 25.3021 82.8359 25.3629V24.4573C82.8359 22.4627 81.219 20.8457 79.2243 20.8457C77.2449 20.8457 75.6375 22.438 75.613 24.4116C77.5229 23.6528 79.6479 24.0488 81.4647 24.9581ZM75.6127 26.6723V28.3003C75.6127 30.295 77.2297 31.912 79.2243 31.912C81.219 31.912 82.8359 30.295 82.8359 28.3003V27.3716C81.9635 27.3035 81.2283 27.0763 80.5695 26.7466C78.7463 25.834 76.9759 25.7257 75.6127 26.6723Z" stroke="#1C2545" stroke-width="2"/>
</svg>
