<svg width="128" height="128" viewBox="0 0 128 128" fill="none" xmlns="http://www.w3.org/2000/svg">
<path d="M33 10L75.5007 21.388C98.9732 27.6775 112.903 51.8043 106.613 75.2768C100.324 98.7493 76.1972 112.679 52.7247 106.39L10.2239 95.0015L33 10Z" fill="#B6C0E2"/>
<path d="M56.1952 25.004C58.1914 22.6626 61.8086 22.6626 63.8048 25.004L65.2992 26.7567C67.0125 28.7662 69.7109 29.6405 72.2772 29.0176L74.5276 28.4713C77.5261 27.7435 80.4617 29.8785 80.693 32.9554L80.8589 35.1617C81.058 37.8109 82.7397 40.119 85.2003 41.1205L87.2682 41.9621C90.1391 43.1306 91.2662 46.6028 89.6287 49.2346L88.483 51.0761C87.0744 53.3401 87.0744 56.2078 88.483 58.4719L89.6287 60.3133C91.2662 62.9451 90.1391 66.4173 87.2682 67.5858L85.2004 68.4274C82.7397 69.4289 81.058 71.737 80.8589 74.3862L80.693 76.5926C80.4617 79.6695 77.526 81.8045 74.5276 81.0766L72.2772 80.5304C69.7109 79.9074 67.0125 80.7817 65.2992 82.7913L63.8048 84.544C61.8086 86.8854 58.1914 86.8854 56.1952 84.544L54.7008 82.7913C52.9875 80.7817 50.2891 79.9074 47.7228 80.5304L45.4724 81.0766C42.474 81.8045 39.5383 79.6695 39.307 76.5926L39.1411 74.3862C38.942 71.737 37.2603 69.4289 34.7997 68.4274L32.7318 67.5858C29.8609 66.4173 28.7339 62.9451 30.3713 60.3133L31.517 58.4719C32.9256 56.2078 32.9256 53.3401 31.517 51.0761L30.3713 49.2346C28.7338 46.6028 29.8609 43.1306 32.7318 41.9621L34.7997 41.1205C37.2603 40.119 38.942 37.8109 39.1411 35.1617L39.307 32.9554C39.5383 29.8785 42.474 27.7435 45.4724 28.4713L47.7228 29.0176C50.2891 29.6405 52.9875 28.7662 54.7008 26.7567L56.1952 25.004Z" stroke="#1C2545" stroke-width="2"/>
<circle cx="60" cy="55" r="13" stroke="#1C2545" stroke-width="2"/>
<path d="M66.2768 82.1846L76.9202 98.5135L82.4462 90.1357L92.4956 89.521L82.4272 70.8725" stroke="#1C2545" stroke-width="2" stroke-linecap="round" stroke-linejoin="round"/>
<path d="M53.815 82.3115L43.1716 98.6404L37.6456 90.2627L27.5962 89.6479L37.6646 70.9994" stroke="#1C2545" stroke-width="2" stroke-linecap="round" stroke-linejoin="round"/>
</svg>
