<svg width="132" height="80" viewBox="0 0 132 80" fill="none" xmlns="http://www.w3.org/2000/svg">
<path d="M2 13.2593C9.57895 13.2593 15.4737 2 15.4737 2C15.4737 2 22.098 13.2593 28.9474 13.2593C35.7967 13.2593 42.4211 2 42.4211 2C42.4211 2 49.0454 13.2593 55.8947 13.2593C62.7441 13.2593 69.3684 2 69.3684 2C69.3684 2 75.9928 13.2593 82.8421 13.2593C89.6914 13.2593 96.3158 2 96.3158 2C96.3158 2 102.211 13.2593 109.789 13.2593" stroke="#1C2545" stroke-width="3" stroke-linecap="round" stroke-linejoin="round"/>
<path d="M2.5625 56.0444C10.1414 56.0444 16.0362 44.7852 16.0362 44.7852C16.0362 44.7852 22.6605 56.0444 29.5099 56.0444C36.3592 56.0444 42.9836 44.7852 42.9836 44.7852C42.9836 44.7852 49.6079 56.0444 56.4572 56.0444C63.3066 56.0444 69.9309 44.7852 69.9309 44.7852C69.9309 44.7852 76.5553 56.0444 83.4046 56.0444C90.2539 56.0444 96.8783 44.7852 96.8783 44.7852C96.8783 44.7852 102.773 56.0444 110.352 56.0444" stroke="#1C2545" stroke-width="3" stroke-linecap="round" stroke-linejoin="round"/>
<path d="M22.2109 34.0893C29.7899 34.0893 35.6846 22.8301 35.6846 22.8301C35.6846 22.8301 42.309 34.0893 49.1583 34.0893C56.0076 34.0893 62.632 22.8301 62.632 22.8301C62.632 22.8301 69.2563 34.0893 76.1057 34.0893C82.955 34.0893 89.5794 22.8301 89.5794 22.8301C89.5794 22.8301 96.2037 34.0893 103.053 34.0893C109.902 34.0893 116.527 22.8301 116.527 22.8301C116.527 22.8301 122.421 34.0893 130 34.0893" stroke="#1C2545" stroke-width="3" stroke-linecap="round" stroke-linejoin="round"/>
<path d="M22.2109 77.9995C29.7899 77.9995 35.6846 66.7402 35.6846 66.7402C35.6846 66.7402 42.309 77.9995 49.1583 77.9995C56.0076 77.9995 62.632 66.7402 62.632 66.7402C62.632 66.7402 69.2563 77.9995 76.1057 77.9995C82.955 77.9995 89.5794 66.7402 89.5794 66.7402C89.5794 66.7402 96.2037 77.9995 103.053 77.9995C109.902 77.9995 116.527 66.7402 116.527 66.7402C116.527 66.7402 122.421 77.9995 130 77.9995" stroke="#1C2545" stroke-width="3" stroke-linecap="round" stroke-linejoin="round"/>
</svg>
