<svg width="204" height="122" viewBox="0 0 204 122" fill="none" xmlns="http://www.w3.org/2000/svg">
<path d="M2 19.4815C13.8421 19.4815 23.0526 2 23.0526 2C23.0526 2 33.4032 19.4815 44.1053 19.4815C54.8073 19.4815 65.1579 2 65.1579 2C65.1579 2 75.5084 19.4815 86.2105 19.4815C96.9126 19.4815 107.263 2 107.263 2C107.263 2 117.614 19.4815 128.316 19.4815C139.018 19.4815 149.368 2 149.368 2C149.368 2 158.579 19.4815 170.421 19.4815" stroke="white" stroke-width="4" stroke-linecap="round" stroke-linejoin="round"/>
<path d="M2.87695 85.9112C14.7191 85.9112 23.9296 68.4297 23.9296 68.4297C23.9296 68.4297 34.2801 85.9112 44.9822 85.9112C55.6843 85.9112 66.0348 68.4297 66.0348 68.4297C66.0348 68.4297 76.3854 85.9112 87.0875 85.9112C97.7896 85.9112 108.14 68.4297 108.14 68.4297C108.14 68.4297 118.491 85.9112 129.193 85.9112C139.895 85.9112 150.245 68.4297 150.245 68.4297C150.245 68.4297 159.456 85.9112 171.298 85.9112" stroke="white" stroke-width="4" stroke-linecap="round" stroke-linejoin="round"/>
<path d="M33.5781 51.8213C45.4202 51.8213 54.6308 34.3398 54.6308 34.3398C54.6308 34.3398 64.9813 51.8213 75.6834 51.8213C86.3855 51.8213 96.736 34.3398 96.736 34.3398C96.736 34.3398 107.087 51.8213 117.789 51.8213C128.491 51.8213 138.841 34.3398 138.841 34.3398C138.841 34.3398 149.192 51.8213 159.894 51.8213C170.596 51.8213 180.947 34.3398 180.947 34.3398C180.947 34.3398 190.157 51.8213 201.999 51.8213" stroke="white" stroke-width="4" stroke-linecap="round" stroke-linejoin="round"/>
<path d="M33.5781 120.001C45.4202 120.001 54.6308 102.52 54.6308 102.52C54.6308 102.52 64.9813 120.001 75.6834 120.001C86.3855 120.001 96.736 102.52 96.736 102.52C96.736 102.52 107.087 120.001 117.789 120.001C128.491 120.001 138.841 102.52 138.841 102.52C138.841 102.52 149.192 120.001 159.894 120.001C170.596 120.001 180.947 102.52 180.947 102.52C180.947 102.52 190.157 120.001 201.999 120.001" stroke="white" stroke-width="4" stroke-linecap="round" stroke-linejoin="round"/>
</svg>
