<svg width="48" height="48" viewBox="0 0 48 48" fill="none" xmlns="http://www.w3.org/2000/svg">
<path fill-rule="evenodd" clip-rule="evenodd" d="M24 48C37.2548 48 48 37.2548 48 24C48 10.7452 37.2548 0 24 0C10.7452 0 0 10.7452 0 24C0 37.2548 10.7452 48 24 48ZM31.0711 21.6569L24.7071 15.2929C24.3166 14.9024 23.6834 14.9024 23.2929 15.2929L16.9289 21.6569C16.5384 22.0474 16.5384 22.6805 16.9289 23.0711C17.3195 23.4616 17.9526 23.4616 18.3431 23.0711L23 18.4142V32H25V18.4142L29.6569 23.0711C30.0474 23.4616 30.6805 23.4616 31.0711 23.0711C31.4616 22.6805 31.4616 22.0474 31.0711 21.6569Z" fill="#E74318"/>
</svg>
