<svg width="232" height="139" viewBox="0 0 232 139" fill="none" xmlns="http://www.w3.org/2000/svg">
<path d="M2 22C15.5 22 26 2 26 2C26 2 37.7996 22 50 22C62.2004 22 74 2 74 2C74 2 85.7996 22 98 22C110.2 22 122 2 122 2C122 2 133.8 22 146 22C158.2 22 170 2 170 2C170 2 180.5 22 194 22" stroke="white" stroke-width="4" stroke-linecap="round" stroke-linejoin="round"/>
<path d="M3 98C16.5 98 27 78 27 78C27 78 38.7996 98 51 98C63.2004 98 75 78 75 78C75 78 86.7996 98 99 98C111.2 98 123 78 123 78C123 78 134.8 98 147 98C159.2 98 171 78 171 78C171 78 181.5 98 195 98" stroke="white" stroke-width="4" stroke-linecap="round" stroke-linejoin="round"/>
<path d="M38 59C51.5 59 62 39 62 39C62 39 73.7996 59 86 59C98.2004 59 110 39 110 39C110 39 121.8 59 134 59C146.2 59 158 39 158 39C158 39 169.8 59 182 59C194.2 59 206 39 206 39C206 39 216.5 59 230 59" stroke="white" stroke-width="4" stroke-linecap="round" stroke-linejoin="round"/>
<path d="M38 137C51.5 137 62 117 62 117C62 117 73.7996 137 86 137C98.2004 137 110 117 110 117C110 117 121.8 137 134 137C146.2 137 158 117 158 117C158 117 169.8 137 182 137C194.2 137 206 117 206 117C206 117 216.5 137 230 137" stroke="white" stroke-width="4" stroke-linecap="round" stroke-linejoin="round"/>
</svg>
