<svg width="32" height="32" viewBox="0 0 32 32" fill="none" xmlns="http://www.w3.org/2000/svg">
<path d="M29.0152 18.1699C29.0152 10.9522 23.1603 5.04688 16.0043 5.04688C8.84841 5.04688 2.99355 10.9522 2.99355 18.1699C2.99355 21.4002 4.19455 24.4286 6.14617 26.6999L2.29297 30.5863L3.69413 31.9996L7.54733 28.1131C9.7992 30.0816 12.8017 31.2929 16.0043 31.2929C19.207 31.2929 22.2095 30.0816 24.4614 28.1131L28.3146 31.9996L29.7157 30.5863L25.8625 26.6999C27.8142 24.4286 29.0152 21.4002 29.0152 18.1699ZM16.0043 29.274C9.94932 29.274 4.99521 24.2772 4.99521 18.1699C4.99521 12.0626 9.94932 7.0658 16.0043 7.0658C22.0594 7.0658 27.0135 12.0626 27.0135 18.1699C27.0135 24.2772 22.0594 29.274 16.0043 29.274Z" fill="#1C2545"/>
<path d="M17.0017 11.1016H15V19.682L19.4037 23.0132L20.6047 21.3981L17.0017 18.6725V11.1016Z" fill="#1C2545"/>
<path d="M11.397 2.57413L10.6964 1.86751C9.49538 0.656151 7.94409 0 6.24268 0C4.54127 0 2.98998 0.656151 1.83903 1.86751C-0.613009 4.34069 -0.613009 8.32808 1.83903 10.8013L2.53961 11.5079L11.397 2.57413ZM3.24019 3.28076C4.04085 2.47319 5.14177 2.01893 6.24268 2.01893C7.04335 2.01893 7.79397 2.22082 8.49455 2.67508L2.63969 8.58044C1.58882 6.91483 1.83903 4.69401 3.24019 3.28076Z" fill="#1C2545"/>
<path d="M30.1595 1.86751C29.0085 0.656151 27.4072 0 25.7558 0C24.1045 0 22.5031 0.656151 21.3021 1.86751L20.6016 2.57413L29.4589 11.5079L30.1595 10.8013C32.6115 8.32808 32.6115 4.34069 30.1595 1.86751ZM29.3588 8.58044L23.504 2.67508C24.1545 2.22082 24.9552 2.01893 25.7558 2.01893C26.9068 2.01893 27.9577 2.47319 28.7583 3.28076C30.1595 4.69401 30.4097 6.91483 29.3588 8.58044Z" fill="#1C2545"/>
</svg>
