<svg width="195" height="124" viewBox="0 0 195 124" fill="none" xmlns="http://www.w3.org/2000/svg">
<path d="M96.4336 62.9688C103 62.3361 105.968 61.1811 112.145 58.759" stroke="#5167B8" stroke-width="4" stroke-linecap="round"/>
<path d="M98.8867 67.9414C104.647 67.3592 107.905 66.4447 113.55 64.0123" stroke="#5167B8" stroke-width="4" stroke-linecap="round"/>
<path d="M117.387 28.0585C114.931 23.0829 114.649 22.0317 108.004 18.1787" stroke="#5167B8" stroke-width="4" stroke-linecap="round"/>
<path d="M106.918 30.8666C105.855 25.9146 103.558 24.1287 97.8164 22.0381" stroke="#5167B8" stroke-width="4"/>
<path d="M130.522 80.4706C130.45 79.3683 131.286 78.4165 132.388 78.3447C133.49 78.2728 134.442 79.1081 134.514 80.2103L130.522 80.4706ZM134.514 80.2103C134.699 83.0506 134.684 85.2841 134.048 87.7152C133.423 90.1056 132.232 92.5573 130.3 95.9168L126.833 93.9231C128.73 90.6231 129.695 88.5534 130.178 86.7032C130.652 84.8937 130.698 83.1672 130.522 80.4706L134.514 80.2103Z" fill="#5167B8"/>
<path d="M119.321 97.9916C118.593 98.8225 117.33 98.9061 116.499 98.1784C115.668 97.4506 115.584 96.187 116.312 95.3561L119.321 97.9916ZM124.046 83.0155C124.441 89.0735 122.254 94.643 119.321 97.9916L116.312 95.3561C118.537 92.8158 120.381 88.2914 120.054 83.2757L124.046 83.0155Z" fill="#5167B8"/>
<path d="M123.312 50.1348L101.317 56.0285C95.0325 57.7124 93.9271 63.6422 97.5676 67.1736C102.118 71.5878 117.706 75.298 125.848 59.596" stroke="#5167B8" stroke-width="4" stroke-linecap="round" stroke-linejoin="round"/>
<path d="M45.7295 66.4156C27.7986 54.3472 18.8479 54.4335 4.0793 61.8017C17.1049 64.6784 23.7822 68.1757 34.3666 78.4741" stroke="#5167B8" stroke-width="4" stroke-linejoin="round"/>
<path d="M50.2353 83.2348C40.741 102.652 32.9462 107.052 16.4722 108.056C26.3143 99.0516 30.3484 92.6841 34.3656 78.4733" stroke="#5167B8" stroke-width="4" stroke-linejoin="round"/>
<path d="M176.689 48.2245C173.587 48.277 171.65 47.935 168.231 45.9841" stroke="#5167B8" stroke-width="4" stroke-linecap="round" stroke-linejoin="round"/>
<path d="M128.158 26.3012C119.969 13.774 112.276 13.8107 90.7767 25.0509C96.2029 29.1292 97.7554 30.2238 96.4541 33.6702" stroke="#5167B8" stroke-width="4" stroke-linecap="round" stroke-linejoin="round"/>
<path d="M143.492 75.147C142.664 90.0905 133.405 96.8502 109.165 97.8658C111.826 91.6208 112.341 88.845 109.491 86.511" stroke="#5167B8" stroke-width="4" stroke-linecap="round" stroke-linejoin="round"/>
<path d="M153.808 43.09C154.301 44.9327 156.185 46.0161 158.004 45.5288C159.822 45.0414 160.912 43.1614 160.418 41.3188C159.924 39.4761 158.041 38.3927 156.222 38.88C154.403 39.3674 153.314 41.2474 153.808 43.09Z" stroke="#5167B8" stroke-width="4" stroke-linejoin="round"/>
<path d="M184.14 38.343C134.479 12.2125 73.5269 31.9248 34.3603 78.4762" stroke="#5167B8" stroke-width="4" stroke-linecap="round"/>
<path d="M133.957 27C132.382 42.0694 137.17 59.9405 146.351 73.2547" stroke="#5167B8" stroke-width="4"/>
<path d="M184.142 38.3406C154.199 85.8006 91.5572 99.2053 34.3622 78.4739" stroke="#5167B8" stroke-width="4" stroke-linecap="round"/>
<path d="M45.7118 66.4189C37.9239 66.7318 34.1889 68.18 28.1875 72.2413" stroke="#5167B8" stroke-width="4"/>
<path d="M37.7424 61.7888C29.7035 62.4475 26.3223 63.868 21.2655 67.3305" stroke="#5167B8" stroke-width="4" stroke-linecap="round"/>
<path d="M27.6793 57.7271C19.2999 59.9718 16.4397 61.8661 13.5791 63.7593" stroke="#5167B8" stroke-width="4" stroke-linecap="round"/>
<path d="M50.2287 83.2346C43.3277 86.8576 38.3218 87.7523 31.0938 87.2358" stroke="#5167B8" stroke-width="4"/>
<path d="M45.6331 91.2281C39.9121 95.0148 34.7031 95.1363 28.5926 94.6661" stroke="#5167B8" stroke-width="4" stroke-linecap="round"/>
<path d="M38.9428 99.7767C29.798 103.355 26.0927 102.095 22.6688 101.886" stroke="#5167B8" stroke-width="4" stroke-linecap="round"/>
</svg>
