<svg width="32" height="32" viewBox="0 0 32 32" fill="none" xmlns="http://www.w3.org/2000/svg">
<path d="M16 27.8125L15.325 26.4625C13.825 23.425 11.275 21.2875 9.0625 19.4125C6.325 17.125 4 15.175 4 12.2125V11.8C4 8.125 6.9625 5.125 10.6 5.125C12.8125 5.125 14.8 6.2125 16 8.0125C17.2 6.2125 19.225 5.125 21.4 5.125C25.0375 5.125 28 8.125 28 11.8V11.875V12.2125C28.0375 15.25 25.525 17.3125 22.9 19.4875C20.6875 21.3625 18.1375 23.4625 16.675 26.4625L16 27.8125ZM10.6 6.625C7.7875 6.625 5.5 8.95 5.5 11.8V12.2125C5.5 14.4625 7.4875 16.15 10.0375 18.2875C12.1 20.0125 14.3875 21.925 16 24.5875C17.6125 21.9625 19.9 20.05 21.9625 18.325C24.5125 16.1875 26.5 14.5375 26.5 12.2125V11.8375V11.7625C26.5 8.95 24.2125 6.625 21.4 6.625C19.3 6.625 17.4625 7.9 16.675 9.8875L16 11.65L15.2875 9.8875C14.5375 7.9 12.6625 6.625 10.6 6.625Z" fill="#1C2545"/>
</svg>
