<svg width="128" height="128" viewBox="0 0 128 128" fill="none" xmlns="http://www.w3.org/2000/svg">
<path d="M32.7529 9.97656L75.2537 21.3646C98.7262 27.654 112.656 51.7809 106.366 75.2534C100.077 98.7259 75.9501 112.656 52.4776 106.366L9.97685 94.978L32.7529 9.97656Z" fill="#EBCAAD"/>
<path d="M38.4115 81.2946C33.5889 84.3929 40.8228 90.4225 49.2703 83.1848C52.8857 79.5723 48.0631 74.7455 44.4463 77.1552M44.4463 77.1552C34.7946 86.8047 29.9724 78.3633 36.0067 74.7455M44.4463 77.1552C48.0668 73.5328 43.234 68.7087 40.8228 71.1277M40.8228 71.1277C33.4532 79.562 26.3443 72.3265 31.1689 68.7087C31.5646 68.2977 31.9681 67.9345 32.3749 67.6161M40.8228 71.1277C43.0472 66.6542 37.4448 63.6493 32.3749 67.6161M32.3749 67.6161C28.8049 60.5328 25.4286 56.8655 17.9072 51.8252" stroke="#1C2545" stroke-width="2" stroke-linecap="round"/>
<path d="M97.4805 44.5898C92.0671 50.2874 87.7882 51.5205 78.1902 50.6195C63.3297 50.3113 61.9133 53.0313 56.4909 56.6491C45.6462 63.8846 51.6658 67.5024 57.694 65.0905C61.7622 64.01 64.3236 63.0452 68.9447 60.6823C69.4379 60.4301 70.0335 60.4756 70.4777 60.8066C77.4359 65.9932 81.6489 69.7251 88.2354 76.3385C88.708 76.813 89.4458 76.9059 90.018 76.558C100.447 70.2194 105.256 66.5457 110.743 60.2668" stroke="#1C2545" stroke-width="2" stroke-linecap="round" stroke-linejoin="round"/>
<path d="M79.1073 51.5776C79.6363 51.7363 80.1938 51.4362 80.3525 50.9072C80.5112 50.3782 80.2111 49.8207 79.6821 49.662L79.1073 51.5776ZM38.1111 38.1545C37.8869 37.6498 37.2959 37.4224 36.7912 37.6467C36.2865 37.871 36.0592 38.4619 36.2834 38.9666L38.1111 38.1545ZM79.6821 49.662C76.5702 48.7282 72.6437 48.1934 68.5017 47.7414C64.3233 47.2855 59.9233 46.9135 55.7247 46.3135C51.529 45.714 47.6366 44.899 44.5159 43.5924C41.3938 42.2852 39.1711 40.5399 38.1111 38.1545L36.2834 38.9666C37.6347 42.0078 40.3853 44.0311 43.7435 45.4372C47.1032 46.8439 51.1981 47.687 55.4418 48.2934C59.6828 48.8994 64.1743 49.2811 68.2847 49.7296C72.4315 50.1821 76.191 50.7025 79.1073 51.5776L79.6821 49.662Z" fill="#1C2545"/>
<path d="M86.6294 74.7393C92.6576 80.7689 87.835 88.0044 80.6012 83.1807M80.6012 83.1807L72.1617 75.9452M80.6012 83.1807C86.6294 89.2103 79.3956 95.24 74.573 90.4163L62.5166 79.563" stroke="#1C2545" stroke-width="2" stroke-linecap="round"/>
<path d="M72.1616 88.0117C78.1898 92.8246 69.7503 96.4428 64.9278 92.825C63.5637 91.8018 59.2457 88.9251 56.4883 88.0117" stroke="#1C2545" stroke-width="2" stroke-linecap="round" stroke-linejoin="round"/>
<path d="M49.2556 83.1868C51.6669 80.7677 57.6951 84.3879 55.2838 88.0104C53.6371 89.6551 51.9905 90.6759 50.4576 91.2288M43.2274 86.7973C41.3614 89.592 45.2537 93.1062 50.4576 91.2288M50.4576 91.2288C52.869 96.4448 67.3367 100.063 62.5141 91.2288" stroke="#1C2545" stroke-width="2" stroke-linecap="round"/>
</svg>
