<svg width="128" height="128" viewBox="0 0 128 128" fill="none" xmlns="http://www.w3.org/2000/svg">
<path d="M9.97656 32.7529L52.4773 21.3649C75.9498 15.0755 100.077 29.0051 106.366 52.4776C112.656 75.9501 98.7259 100.077 75.2534 106.366L32.7526 117.754L9.97656 32.7529Z" fill="#EBCAAD"/>
<path d="M60.5 41.501C63.1811 60.8894 62.0813 77.0628 61.6421 96.4744C61.5481 100.626 60.918 104.758 60.918 109" stroke="#1C2545" stroke-width="2" stroke-linecap="round" stroke-linejoin="round"/>
<path d="M86.9853 74.8184C85.957 83.8188 83.0377 95.4962 74.5148 100.111C68.1296 103.569 60.601 103.768 53.6771 101.97C40.9239 98.6572 37.1341 89.1336 32.501 77.5" stroke="#1C2545" stroke-width="2" stroke-linecap="round" stroke-linejoin="round"/>
<path d="M86.9825 74.6362C83.362 79.0639 75.0109 91.3925 77.5687 87.0003C79.3172 83.9977 84.7253 77.2942 86.9825 74.6362ZM86.9825 74.6362C88.9369 72.3348 92.7123 86.4781 93.4993 88.4544" stroke="#1C2545" stroke-width="2" stroke-linecap="round" stroke-linejoin="round"/>
<path d="M33 77.001C37.3445 80.2737 41.327 84.2737 46.0336 87.1828" stroke="#1C2545" stroke-width="2" stroke-linecap="round" stroke-linejoin="round"/>
<path d="M70.5371 60.2734C66.3426 60.2734 57.3067 60.3179 53.2275 61.0007" stroke="#1C2545" stroke-width="2" stroke-linecap="round" stroke-linejoin="round"/>
<path d="M53.6748 36.5561C53.6748 31.0657 57.6317 27.2346 62.499 29.5001C64.9837 31.1012 66.7052 33.7372 66.1855 36.5561C65.6759 39.32 63.7008 41.5004 59.999 41.5004C57.499 41.5004 54.499 40.4753 53.6748 36.5561Z" stroke="#1C2545" stroke-width="2" stroke-linecap="round" stroke-linejoin="round"/>
<path d="M32.8837 77.001C32.8214 80.443 33.5572 83.6845 32.8837 87.067C32.6182 88.4003 32 92.8676 32 91.5079" stroke="#1C2545" stroke-width="2" stroke-linecap="round" stroke-linejoin="round"/>
</svg>
