<svg width="32" height="32" viewBox="0 0 32 32" fill="none" xmlns="http://www.w3.org/2000/svg">
<g clip-path="url(#clip0)">
<path d="M26.6668 18.1667C26.6668 17.6333 26.5002 17.1 26.1668 16.6667C26.6002 16.1 26.7668 15.4 26.6335 14.7C26.4002 13.5333 25.3335 12.6667 24.1002 12.6667H19.4335C19.5335 12 19.6668 11.1333 19.6668 10.3C19.6668 8.26667 19.0335 6.9 17.6668 6.06667C16.3002 5.23334 14.7335 6 14.6668 6.03334L14.2668 6.23334L14.6668 10.1667L12.0002 15.2C11.8002 15.1 11.5668 15 11.3335 15H6.66683C5.9335 15 5.3335 15.6 5.3335 16.3333V25C5.3335 25.7333 5.9335 26.3333 6.66683 26.3333H11.3335C11.8335 26.3333 12.3002 26.0333 12.5002 25.6C12.9335 25.8667 13.4668 26 14.0002 26H22.1002C23.4002 26 24.4668 25.0667 24.6335 23.8333C24.6668 23.5667 24.6668 23.3 24.6335 23.0333C25.4668 22.6 26.0002 21.7667 26.0002 20.8C26.0002 20.5 25.9668 20.2333 25.8668 19.9667C26.3668 19.5333 26.6668 18.8667 26.6668 18.1667ZM11.3335 25H6.66683V16.3333H11.3335V25ZM24.7002 19.2L24.0335 19.5333L24.4668 20.1667C24.6002 20.3667 24.6668 20.6 24.6668 20.8333C24.6668 21.4 24.2335 21.9 23.6668 22L22.7335 22.1333L23.1668 22.9667C23.2668 23.2 23.3335 23.4333 23.3002 23.6667C23.2335 24.2333 22.7002 24.6667 22.0668 24.6667H14.0002C13.3668 24.6667 12.6668 24.3 12.6668 23.6667V16.8L15.8668 10.7C15.9668 10.5333 16.0002 10.3333 15.9668 10.1333L15.7002 7.06667C16.0335 6.96667 16.5668 6.93334 16.9668 7.16667C17.9002 7.73334 18.3002 8.73334 18.3002 10.2667C18.3002 11.0667 18.1668 11.9 18.0668 12.5333C18.0335 12.8333 18.0002 13.0667 17.9668 13.2333L17.9335 14H24.1002C24.7002 14 25.2002 14.4 25.3002 14.9333C25.4002 15.4 25.2002 15.8333 24.8335 16.1L24.0668 16.6667L24.8335 17.2C25.1335 17.4333 25.3335 17.7667 25.3335 18.1667C25.3335 18.6 25.1002 19 24.7002 19.2Z" fill="#1C2545"/>
</g>
<defs>
<clipPath id="clip0">
<rect width="21.3333" height="21.3333" fill="white" transform="translate(5.3335 5.33334)"/>
</clipPath>
</defs>
</svg>
