<svg width="904" height="235" viewBox="0 0 904 235" fill="none" xmlns="http://www.w3.org/2000/svg">
<path d="M465.079 58.5695H438.396L363.328 231.021H408.64L449.973 135.415H451.096L492.431 231.021H540.147L465.079 58.5695Z" fill="white"/>
<path d="M903.828 231.07V55.9328H890.089L797.059 146.746V56.7022H754.436V231.07H767.923L860.705 140.646V231.07H903.828Z" fill="white"/>
<path d="M331.163 93.4568V56.7021H221.524V231.07H331.163V194.57H262.864V161.03L323.516 162.117V125.62L262.864 126.744V92.3755L331.163 93.4568Z" fill="white"/>
<path d="M134.057 64.473C137.524 84.2744 139.991 120.203 122.425 154.238C93.8943 210.652 39.2427 219.05 39.2427 219.05C39.2427 219.05 18.2823 172.561 47.2964 113.903C62.4104 81.6477 89.6521 64.7197 108.836 56.3624C105.062 55.7663 101.221 55.3957 97.3047 55.309V55.257H0V234.333H97.3047V234.288C144.799 233.231 182.987 193.585 182.987 144.794C182.987 109.541 163.041 79.069 134.057 64.473Z" fill="white"/>
<path d="M62.7631 190.541C62.7631 195.068 59.0937 198.741 54.5631 198.741C50.036 198.741 46.3672 195.068 46.3672 190.541C46.3672 186.01 50.036 182.341 54.5631 182.341C59.0937 182.341 62.7631 186.01 62.7631 190.541Z" fill="white"/>
<path d="M167.395 23.638C167.395 23.638 146.549 16.9513 134.559 28.6273C134.559 28.6233 134.559 28.6233 134.555 28.6233C136.049 11.9566 117.709 0.00195312 117.709 0.00195312C114.897 2.47129 112.539 5.52195 110.836 9.09528C103.966 23.5446 110.448 40.9899 125.312 48.0579C125.316 48.0619 125.308 48.0579 125.312 48.0579L125.316 48.0619C125.32 48.0633 125.312 48.0579 125.316 48.0619C140.179 55.1299 157.805 49.1526 164.675 34.7073C166.377 31.134 167.255 27.3753 167.395 23.638Z" fill="white"/>
<path d="M647.068 197.231C617.605 197.231 598.149 173.349 598.149 143.886C598.149 114.424 617.605 90.5397 647.068 90.5397C664.666 90.5397 680.228 99.0997 689.944 112.242L715.674 86.5117C702.807 67.7943 680.319 52.6997 645.796 52.6864L644.136 52.6703C619.953 52.6703 596.753 61.8504 580.488 77.8544C563.605 94.465 554.681 117.252 554.681 143.756C554.681 203.218 600.493 234.333 645.748 234.333C680.054 234.333 702.381 219.878 715.352 200.938L689.944 175.53C680.228 188.673 664.666 197.231 647.068 197.231Z" fill="white"/>
</svg>
