<svg width="32" height="32" viewBox="0 0 32 32" fill="none" xmlns="http://www.w3.org/2000/svg">
<path d="M11.4697 28.0399C11.3168 24.2536 11.2471 21.8283 11.4207 19.2974C11.4606 18.7148 12.0006 18.3146 12.5823 18.365C12.9843 18.3998 13.3378 18.4013 13.6987 18.3742C14.3025 18.3289 14.857 18.7591 14.8834 19.364C15.1238 24.8901 15.0499 26.366 14.9086 28.081C14.8658 28.5998 14.4308 28.9995 13.9102 28.9995H12.4686C11.9323 28.9995 11.4914 28.5757 11.4697 28.0399Z" stroke="#1C2545" stroke-linecap="round" stroke-linejoin="round"/>
<path d="M6.16169 28.119C5.94564 26.0804 5.94207 24.6612 6.17533 22.5916C6.22393 22.1604 6.5514 21.8082 6.98194 21.7541C7.63985 21.6714 8.17801 21.6757 8.83177 21.7553C9.27862 21.8097 9.6176 22.1793 9.65419 22.6279C9.7999 24.4148 9.79375 25.8449 9.64984 28.0708C9.61604 28.5936 9.18007 28.9987 8.65615 28.9987H7.14762C6.64244 28.9987 6.21493 28.6214 6.16169 28.119Z" stroke="#1C2545" stroke-linecap="round" stroke-linejoin="round"/>
<path d="M16.995 27.9371C17.242 23.7415 17.3143 20.7914 16.9839 14.953C16.9548 14.4388 17.3184 13.9757 17.8305 13.9209C18.4679 13.8527 18.9791 13.8509 19.5534 13.9248C19.9751 13.9791 20.2931 14.3251 20.3284 14.7488C20.5144 16.98 20.4452 20.9853 20.2769 28.0219C20.2639 28.5646 19.8201 29 19.2773 29H17.9945C17.4179 29 16.9611 28.5127 16.995 27.9371Z" stroke="#1C2545" stroke-linecap="round" stroke-linejoin="round"/>
<path d="M22.1505 28.0222C21.972 21.6465 21.7412 17.7056 22.1329 11.2592C22.1582 10.8416 22.442 10.472 22.8573 10.4222C23.3238 10.3663 23.8574 10.3823 24.6252 10.4614C25.1257 10.513 25.4995 10.9414 25.4995 11.4447C25.499 19.6553 25.4996 23.0624 25.4996 27.998C25.4996 28.5503 25.0518 28.9984 24.4996 28.9984H23.1513C22.6091 28.9984 22.1657 28.5642 22.1505 28.0222Z" stroke="#1C2545" stroke-linecap="round" stroke-linejoin="round"/>
<path d="M5.92387 15.0491C5.66301 15.1396 5.52497 15.4245 5.61556 15.6854C5.70614 15.9463 5.99105 16.0843 6.25191 15.9937L5.92387 15.0491ZM25.1248 3.01233C25.1316 2.73627 24.9134 2.50696 24.6373 2.50015L20.1387 2.3892C19.8626 2.38239 19.6333 2.60066 19.6265 2.87672C19.6197 3.15278 19.838 3.38209 20.114 3.3889L24.1128 3.48752L24.0142 7.4863C24.0074 7.76236 24.2257 7.99167 24.5017 7.99848C24.7778 8.00529 25.0071 7.78702 25.0139 7.51096L25.1248 3.01233ZM6.25191 15.9937C13.3104 13.5426 17.3893 10.5777 24.9697 3.36216L24.2803 2.63784C16.745 9.81034 12.7881 12.6654 5.92387 15.0491L6.25191 15.9937Z" fill="#1C2545"/>
</svg>
