<svg width="32" height="32" viewBox="0 0 32 32" fill="none" xmlns="http://www.w3.org/2000/svg">
<g clip-path="url(#clip0)">
<path d="M20.8001 27.3333C17.7334 27.3333 13.7001 25.2 10.2334 21.7667C5.60007 17.1 3.50006 11.5 5.3334 8.63333C5.40006 8.46667 5.50006 8.33333 5.6334 8.23333L7.3334 6.53333C7.70006 6.2 8.16673 6 8.70007 6C9.30007 6 9.86673 6.26667 10.3334 6.7L13.3667 9.73333C14.2334 10.6 14.3001 11.9333 13.5001 12.7L11.5667 14.6333C12.3334 15.7333 13.2334 16.8 14.2001 17.8C15.2001 18.8 16.2667 19.6667 17.3667 20.4333L19.3001 18.5C19.6667 18.1333 20.1334 17.9667 20.6667 17.9667C21.2667 17.9667 21.8334 18.2333 22.3001 18.6667L25.3334 21.7C25.7334 22.1 25.9667 22.6333 26.0334 23.1667C26.0667 23.7333 25.8667 24.3 25.5001 24.6667L23.8001 26.3667C23.7001 26.4667 23.5667 26.5667 23.4001 26.6667C22.6667 27.1 21.8001 27.3333 20.8001 27.3333ZM8.70007 7.33333C8.56673 7.33333 8.40006 7.36667 8.30006 7.5L6.56673 9.2C6.56673 9.2 6.5334 9.23333 6.5334 9.26667L6.50006 9.33333C4.96673 11.6333 7.0334 16.6667 11.2001 20.8C14.3334 23.9667 18.1001 26 20.8001 26C21.5667 26 22.1667 25.8333 22.6667 25.5333L22.7334 25.5C22.8001 25.4667 22.8001 25.4667 22.8001 25.4667L24.5001 23.7667C24.6667 23.6 24.6667 23.4 24.6667 23.3C24.6667 23.0667 24.5334 22.8667 24.3667 22.6667L21.3334 19.6C21.1334 19.4 20.9001 19.3 20.6667 19.3C20.5334 19.3 20.3667 19.3333 20.2667 19.4667L18.3001 21.4333C17.8667 21.8667 17.1667 21.9 16.6667 21.5333C15.5001 20.7333 14.3667 19.7667 13.3334 18.7333C12.2667 17.6667 11.3334 16.5667 10.5334 15.4C10.1667 14.8667 10.2001 14.1667 10.6334 13.7667L12.6001 11.8C12.8667 11.5333 12.8001 11.0333 12.4667 10.7L9.4334 7.66667C9.16673 7.43333 8.9334 7.33333 8.70007 7.33333Z" fill="#1C2545"/>
</g>
<defs>
<clipPath id="clip0">
<rect width="21.3333" height="21.3333" fill="white" transform="translate(4.66675 6)"/>
</clipPath>
</defs>
</svg>
