<svg width="128" height="128" viewBox="0 0 128 128" fill="none" xmlns="http://www.w3.org/2000/svg">
<g filter="url(#filter0_dddd)">
<circle cx="64" cy="40" r="32" fill="white"/>
</g>
<path fill-rule="evenodd" clip-rule="evenodd" d="M71.5733 21.7843C73.3049 20.2932 74.6807 20.398 77.2814 20.9256C75.766 30.2707 62.2283 24.3606 68.593 16.834C70.6269 18.4132 71.4043 19.4463 71.5733 21.7843ZM64.9559 26.4822H48.0337V57.7503H64.9559C82.1306 56.7906 85.0099 34.817 71.4721 28.0987C73.6442 39.9189 67.8351 52.0928 54.8531 55.1236C51.3171 46.2837 54.752 31.7862 67.0269 26.6338C66.2538 26.5322 65.8117 26.4856 64.9559 26.4822ZM59.0963 50.1733C59.0963 51.0102 58.4178 51.6887 57.5809 51.6887C56.7439 51.6887 56.0655 51.0102 56.0655 50.1733C56.0655 49.3363 56.7439 48.6579 57.5809 48.6579C58.4178 48.6579 59.0963 49.3363 59.0963 50.1733Z" fill="#1B1F33"/>
<defs>
<filter id="filter0_dddd" x="0" y="0" width="128" height="128" filterUnits="userSpaceOnUse" color-interpolation-filters="sRGB">
<feFlood flood-opacity="0" result="BackgroundImageFix"/>
<feColorMatrix in="SourceAlpha" type="matrix" values="0 0 0 0 0 0 0 0 0 0 0 0 0 0 0 0 0 0 127 0"/>
<feOffset/>
<feGaussianBlur stdDeviation="0.5"/>
<feColorMatrix type="matrix" values="0 0 0 0 0.109804 0 0 0 0 0.145098 0 0 0 0 0.270588 0 0 0 0.08 0"/>
<feBlend mode="normal" in2="BackgroundImageFix" result="effect1_dropShadow"/>
<feColorMatrix in="SourceAlpha" type="matrix" values="0 0 0 0 0 0 0 0 0 0 0 0 0 0 0 0 0 0 127 0"/>
<feOffset dy="4"/>
<feGaussianBlur stdDeviation="4"/>
<feColorMatrix type="matrix" values="0 0 0 0 0.109804 0 0 0 0 0.145098 0 0 0 0 0.270588 0 0 0 0.08 0"/>
<feBlend mode="normal" in2="effect1_dropShadow" result="effect2_dropShadow"/>
<feColorMatrix in="SourceAlpha" type="matrix" values="0 0 0 0 0 0 0 0 0 0 0 0 0 0 0 0 0 0 127 0"/>
<feOffset dy="16"/>
<feGaussianBlur stdDeviation="12"/>
<feColorMatrix type="matrix" values="0 0 0 0 0.109804 0 0 0 0 0.145098 0 0 0 0 0.270588 0 0 0 0.08 0"/>
<feBlend mode="normal" in2="effect2_dropShadow" result="effect3_dropShadow"/>
<feColorMatrix in="SourceAlpha" type="matrix" values="0 0 0 0 0 0 0 0 0 0 0 0 0 0 0 0 0 0 127 0"/>
<feOffset dy="24"/>
<feGaussianBlur stdDeviation="16"/>
<feColorMatrix type="matrix" values="0 0 0 0 0.109804 0 0 0 0 0.145098 0 0 0 0 0.270588 0 0 0 0.08 0"/>
<feBlend mode="normal" in2="effect3_dropShadow" result="effect4_dropShadow"/>
<feBlend mode="normal" in="SourceGraphic" in2="effect4_dropShadow" result="shape"/>
</filter>
</defs>
</svg>
